<?xml version="1.0" standalone="no"?>
<!DOCTYPE svg PUBLIC "-//W3C//DTD SVG 20010904//EN"
 "http://www.w3.org/TR/2001/REC-SVG-20010904/DTD/svg10.dtd">
<svg version="1.0" xmlns="http://www.w3.org/2000/svg"
 width="7200.000000pt" height="4800.000000pt" viewBox="0 0 7200.000000 4800.000000"
 preserveAspectRatio="xMidYMid meet">

<g transform="translate(0.000000,4800.000000) scale(0.100000,-0.100000)"
fill="#000000" stroke="none">
<path d="M0 24000 l0 -24000 12000 0 12000 0 0 40 c0 33 -3 40 -20 40 -18 0
-20 7 -20 88 0 48 -5 94 -10 102 -7 11 -10 -3 -10 -47 l0 -63 -50 0 -50 0 0
40 0 40 40 0 c22 0 40 5 40 10 0 6 -18 10 -40 10 -22 0 -40 -4 -40 -10 0 -5
-18 -10 -40 -10 -38 0 -40 2 -40 30 0 23 -4 30 -20 30 -11 0 -20 5 -20 10 0 6
-9 10 -20 10 -13 0 -20 7 -20 20 0 13 -7 20 -20 20 -18 0 -20 7 -20 60 0 53
-2 60 -20 60 -19 0 -20 7 -20 100 l0 100 -40 0 -40 0 -1 43 -1 42 -12 -48
c-12 -50 -26 -54 -26 -8 0 14 -5 33 -10 41 -7 11 -10 5 -11 -25 -1 -22 -5 -53
-9 -70 -5 -21 -8 -4 -10 60 -1 87 -2 89 -15 55 l-13 -35 -7 33 c-4 17 -13 32
-21 32 -7 0 -15 -14 -17 -32 -2 -18 -5 4 -5 50 l-2 82 -40 0 c-22 0 -40 -4
-40 -10 0 -5 16 -10 35 -10 34 0 34 -1 28 -32 -7 -41 -11 -46 -18 -24 -3 9 -7
23 -10 32 -10 31 -15 8 -20 -101 -5 -129 -15 -152 -15 -37 l0 82 -30 0 c-28 0
-30 -2 -30 -40 0 -54 -20 -51 -21 3 l-1 42 -13 -35 -13 -35 -7 33 c-10 42 -33
42 -38 0 -3 -23 -4 -16 -5 20 l-2 52 -40 0 -40 0 -2 103 c-1 56 -3 83 -5 60
-6 -58 -33 -60 -33 -3 0 57 -27 55 -33 -3 -3 -33 -4 -29 -5 21 l-2 62 -80 0
c-73 0 -80 2 -80 20 0 17 7 20 40 20 22 0 40 5 40 10 0 6 -18 10 -40 10 -38 0
-40 1 -41 33 -1 36 -5 25 -14 -47 -8 -61 -25 -44 -25 27 0 34 -4 47 -15 47
-10 0 -15 -16 -18 -63 -3 -57 -3 -56 -5 21 l-2 82 -40 0 c-22 0 -40 5 -40 10
0 6 -18 10 -40 10 l-40 0 0 50 0 50 -40 0 -40 0 0 40 0 40 -40 0 c-33 0 -40 3
-40 20 0 17 -7 20 -40 20 -43 0 -47 4 -26 26 10 9 37 14 80 14 37 0 66 4 66
10 0 6 -18 10 -40 10 l-40 0 0 60 c0 33 -4 60 -10 60 -5 0 -10 -6 -10 -12 0
-7 -6 -4 -12 7 -25 42 -57 65 -93 65 -25 0 -35 4 -35 16 0 8 -18 33 -40 54
-26 25 -40 47 -40 64 0 24 -4 26 -40 26 -33 0 -40 3 -40 20 0 28 -20 25 -21
-2 l0 -23 -11 23 c-14 28 -35 28 -41 -1 -2 -12 -5 11 -6 51 l-1 72 -40 0 c-33
0 -40 3 -40 20 0 17 -7 20 -40 20 l-40 0 0 50 0 50 40 0 c22 0 40 5 40 10 0 6
-18 10 -39 10 -33 0 -40 4 -44 23 -3 16 -5 13 -6 -10 -1 -43 -26 -43 -36 0
l-7 32 -13 -35 c-13 -33 -14 -29 -16 70 -1 58 -4 92 -6 75 -9 -75 -15 -97 -24
-88 -5 5 -10 28 -11 51 -2 68 -15 68 -24 0 l-8 -63 -4 53 -3 52 -40 0 c-37 0
-39 2 -39 30 0 28 -2 30 -40 30 l-40 0 0 43 -1 42 -33 -39 c-18 -21 -32 -46
-30 -55 3 -9 0 -29 -5 -46 -7 -24 -9 -14 -10 53 l-1 82 -40 0 c-22 0 -40 -4
-40 -10 0 -5 -18 -10 -40 -10 -22 0 -40 5 -40 10 0 6 18 10 40 10 33 0 40 3
40 20 0 17 -7 20 -40 20 l-40 0 0 76 c0 68 -2 75 -15 64 -11 -9 -12 -15 -5
-20 7 -4 8 -27 4 -64 -8 -63 -20 -59 -22 6 -1 23 -6 46 -11 51 -9 9 -15 -13
-24 -88 -2 -16 -5 2 -6 42 -1 49 3 73 11 75 9 3 8 9 -5 22 -12 12 -17 14 -17
4 -1 -7 -8 -1 -16 15 -16 30 -24 33 -42 15 -9 -9 -12 -1 -12 36 0 35 -3 45
-12 39 -7 -4 -22 -8 -33 -8 -12 0 -22 -9 -26 -25 -6 -23 -7 -22 -9 10 -2 25
-4 28 -7 13 -2 -13 -10 -23 -18 -23 -7 0 -16 10 -19 23 l-7 22 -11 -25 c-11
-25 -11 -25 -15 -3 -4 19 -11 23 -44 23 l-39 0 0 60 0 60 -40 0 -40 0 -1 53
-1 52 -10 -54 c-10 -55 -27 -55 -28 -1 0 14 -4 31 -9 39 -7 11 -11 4 -16 -25
-11 -69 -13 -70 -14 -6 -1 56 1 62 19 62 19 0 20 7 20 140 0 133 -1 140 -20
140 -17 0 -20 7 -20 40 0 38 -20 60 -20 23 -1 -16 -2 -16 -15 1 -16 21 -17 21
-33 -9 -11 -19 -11 -19 -12 3 0 24 -15 30 -23 10 -4 -10 -6 -10 -6 0 -1 14
-41 17 -41 2 0 -5 -7 -10 -15 -10 -10 0 -15 -10 -15 -32 0 -25 -3 -29 -10 -18
-8 12 -10 10 -10 -10 0 -20 -2 -22 -10 -10 -8 12 -10 11 -10 -7 0 -13 5 -23
10 -23 6 0 10 -18 10 -40 0 -33 -3 -40 -20 -40 -17 0 -20 7 -20 50 l0 50 -40
0 c-22 0 -40 5 -40 10 0 6 -18 10 -40 10 -33 0 -40 3 -40 20 0 13 7 20 20 20
18 0 20 7 20 80 0 44 3 80 6 80 10 0 34 -28 34 -40 0 -17 26 -40 44 -40 9 0
16 -4 16 -10 0 -5 5 -10 10 -10 6 0 10 33 10 80 l0 80 -40 0 c-22 0 -40 5 -40
10 0 6 18 10 40 10 22 0 40 5 40 10 0 6 -18 10 -40 10 -33 0 -40 3 -40 20 0
17 -7 20 -40 20 -22 0 -40 5 -40 10 0 6 -33 10 -80 10 l-80 0 0 80 c0 47 4 80
10 80 6 0 8 -15 4 -40 -6 -35 -4 -40 13 -40 18 0 20 4 13 40 -7 36 -5 40 13
40 17 0 19 -5 13 -40 -4 -25 -2 -40 4 -40 5 0 10 23 10 50 l0 50 -39 0 c-28 0
-46 7 -67 28 l-29 27 28 3 c42 5 32 22 -13 22 -22 0 -40 5 -40 10 0 6 -18 10
-40 10 l-40 0 0 40 0 40 -40 0 c-33 0 -40 3 -40 19 0 11 -6 22 -12 25 -10 5
-10 7 -1 12 7 3 13 14 13 24 0 10 6 21 13 24 10 5 10 7 0 12 -8 4 -13 27 -13
65 l0 59 -40 0 c-33 0 -40 3 -40 20 0 16 7 20 30 20 37 0 37 5 0 40 -25 23
-30 36 -30 74 l0 46 -40 0 -40 0 0 40 0 40 -50 0 -50 0 0 -62 c0 -45 -3 -59
-10 -48 -5 8 -10 36 -10 63 0 34 -4 47 -15 47 -10 0 -15 -16 -18 -62 l-3 -63
-2 63 c-2 62 -2 62 -32 62 -28 0 -30 -3 -31 -37 0 -21 -4 -56 -8 -78 -6 -28
-9 6 -10 118 -1 97 -5 157 -11 157 -5 0 -10 -18 -10 -40 0 -22 -4 -40 -10 -40
-5 0 -10 18 -10 40 0 22 -4 40 -10 40 -5 0 -10 -18 -10 -40 0 -51 -20 -53 -21
-2 -1 20 -3 29 -6 20 -3 -12 -14 -18 -33 -18 -19 0 -30 -6 -33 -18 -3 -9 -5 2
-6 25 -1 37 -3 41 -22 36 -12 -4 -25 0 -29 7 -6 10 -11 3 -18 -21 l-10 -34 -1
30 c-1 29 -3 31 -41 30 -27 0 -40 4 -40 13 0 7 6 12 13 11 6 -1 24 -1 40 0 25
1 27 4 27 41 l0 40 -40 0 c-33 0 -40 3 -40 20 0 11 -4 20 -10 20 -5 0 -10 -10
-10 -22 0 -19 -2 -20 -10 -8 -5 8 -10 36 -10 63 0 40 -3 47 -20 47 -19 0 -20
7 -21 123 -1 102 -3 115 -11 79 -10 -46 -28 -48 -28 -2 0 16 -4 31 -9 34 -14
9 -21 -34 -14 -96 4 -40 2 -58 -6 -58 -8 0 -11 39 -11 130 l0 130 -40 0 c-22
0 -40 5 -40 10 0 6 -18 10 -40 10 -33 0 -40 3 -40 20 0 17 -7 20 -40 20 -38 0
-40 2 -40 30 0 28 -2 30 -40 30 l-40 0 0 40 0 40 -40 0 -40 0 0 190 0 190 -40
0 -40 0 0 40 0 40 -49 0 c-30 0 -51 -5 -54 -12 -3 -7 -8 2 -12 20 -10 42 -33
42 -38 -1 -2 -17 -5 -4 -5 31 l-2 62 -40 0 -40 0 0 40 0 40 -40 0 -40 0 -1 53
-1 52 -13 -35 -13 -35 -7 33 c-10 42 -33 42 -38 0 -2 -18 -5 0 -5 40 l-2 72
-40 0 -40 0 -1 43 -1 42 -13 -35 -13 -35 -7 33 c-10 42 -33 42 -38 0 -2 -18
-5 0 -5 40 l-2 72 40 0 40 0 0 40 0 40 -44 0 c-40 0 -44 -2 -53 -32 l-11 -33
-7 33 c-4 17 -13 32 -21 32 -7 0 -15 -14 -17 -32 l-4 -33 -1 33 c-2 30 -4 32
-42 32 l-40 0 0 40 c0 33 -3 40 -20 40 -17 0 -20 7 -20 40 0 33 3 40 20 40 17
0 20 7 20 40 0 38 -2 40 -30 40 -28 0 -30 -2 -30 -40 0 -22 -4 -40 -10 -40 -6
0 -10 37 -10 90 l0 90 -40 0 -40 0 0 112 c0 111 7 131 20 61 l8 -38 1 43 c1
35 4 42 20 42 16 0 21 -8 24 -42 2 -24 4 -6 5 40 1 49 -2 82 -8 82 -5 0 -10
-8 -10 -17 -1 -16 -2 -16 -15 1 -18 24 -32 13 -38 -29 -4 -27 -4 -26 -6 8 l-1
37 -46 0 c-38 0 -51 -5 -74 -30 -15 -16 -31 -30 -34 -30 -3 0 -6 23 -6 50 l0
50 -40 0 c-33 0 -40 3 -40 20 0 13 -7 20 -20 20 -19 0 -20 7 -20 120 0 113 1
120 20 120 18 0 20 6 19 73 -1 39 -4 59 -6 43 -3 -15 -19 -42 -36 -59 l-32
-31 -5 149 c-5 126 -6 135 -8 55 -3 -144 -14 -260 -23 -254 -5 3 -9 63 -9 135
0 71 -4 129 -9 129 -11 0 -22 -113 -20 -218 0 -46 -2 -86 -5 -89 -3 -4 -6 63
-6 148 l-1 154 -39 45 c-22 25 -40 39 -40 33 0 -8 -15 -13 -40 -13 l-40 0 0
87 c0 47 -3 83 -7 79 -5 -4 -8 -18 -8 -29 0 -13 -6 -22 -15 -22 -8 0 -14 6
-12 13 1 6 3 18 5 24 1 7 -5 13 -13 13 -9 0 -15 -9 -15 -22 0 -11 -3 -25 -8
-29 -4 -4 -7 9 -7 29 0 36 1 37 40 37 22 0 40 3 40 8 0 4 -18 7 -40 7 l-40 -1
-1 76 -2 75 -8 -74 c-9 -78 -15 -95 -24 -67 -16 50 -18 51 -25 18 -13 -55 -20
-49 -20 16 l0 62 -40 0 c-39 0 -53 12 -27 24 10 5 9 7 0 12 -17 7 -17 61 -1
67 10 4 10 8 1 14 -6 4 -13 26 -16 48 l-4 40 -1 -42 c-2 -31 -6 -43 -17 -43
-11 0 -15 11 -15 40 0 57 -27 55 -33 -2 l-4 -43 -1 43 c-2 35 -5 42 -22 42
-18 0 -20 7 -20 79 0 51 4 81 11 83 9 3 9 9 0 25 -6 12 -11 37 -11 56 0 57
-14 52 -26 -10 l-12 -58 -1 74 c-1 77 -8 86 -21 29 -4 -21 -9 -27 -13 -18 -20
55 -20 55 -33 -5 l-12 -60 -2 95 c-2 79 -4 88 -11 55 -4 -22 -8 -62 -8 -88 -1
-29 -5 -46 -11 -42 -5 3 -10 36 -10 73 0 74 -13 111 -24 69 -3 -13 -5 -59 -5
-101 1 -43 -2 -80 -5 -83 -3 -4 -6 10 -6 30 0 36 -1 37 -40 37 -38 0 -40 2
-40 30 0 28 -2 30 -40 30 l-40 0 0 50 0 50 40 0 c22 0 40 5 40 10 0 6 -18 10
-40 10 -22 0 -40 -4 -40 -10 0 -5 -9 -10 -20 -10 -11 0 -20 5 -20 10 0 6 5 10
10 10 6 0 10 7 10 15 0 8 5 15 10 15 6 0 10 7 10 15 0 8 5 15 10 15 6 0 10 14
10 30 0 17 5 30 10 30 6 0 10 9 10 20 0 11 5 20 10 20 6 0 10 5 10 10 0 6 -18
10 -40 10 -22 0 -40 5 -40 11 0 5 -5 7 -11 3 -8 -4 -7 -9 2 -15 12 -8 12 -10
0 -18 -7 -5 -11 -14 -7 -20 8 -13 -31 -54 -44 -46 -6 4 -10 -3 -10 -14 0 -28
-24 -27 -38 2 l-11 22 0 -22 c-1 -21 -6 -23 -51 -23 -48 0 -50 1 -50 28 0 16
8 34 20 42 14 10 20 26 20 52 0 21 5 38 10 38 6 0 10 -13 10 -30 0 -16 5 -30
10 -30 6 0 10 18 10 40 l0 40 -40 0 c-38 0 -40 1 -40 32 0 38 -10 31 -20 -14
-7 -33 -9 -32 -25 18 -10 32 -18 4 -17 -63 0 -38 -3 -86 -8 -108 -6 -31 -8
-13 -11 80 -1 66 -4 101 -6 78 -6 -58 -33 -60 -33 -3 0 29 -4 40 -15 40 -11 0
-15 -12 -16 -42 -1 -24 -4 -33 -6 -21 -4 19 -11 23 -44 23 -39 0 -39 0 -39 40
0 30 4 40 16 40 15 0 44 23 44 34 0 3 -13 6 -30 6 -23 0 -30 4 -30 20 0 18 7
20 70 20 40 0 70 4 70 10 0 6 -30 10 -70 10 -40 0 -70 -4 -70 -10 0 -11 -142
-14 -153 -4 -8 8 18 34 33 34 17 0 40 26 40 44 0 12 -10 16 -40 16 -22 0 -40
5 -40 10 0 6 18 10 40 10 l40 0 0 40 c0 30 4 40 16 40 12 0 14 3 6 13 -12 14
-182 11 -182 -4 0 -5 18 -9 40 -9 22 0 40 -4 40 -10 0 -6 -47 -10 -120 -10
l-120 0 0 150 0 150 -30 0 c-24 0 -30 -4 -30 -20 0 -12 -6 -20 -13 -18 -14 3
-87 -65 -87 -83 0 -6 -13 -23 -28 -37 -16 -15 -34 -36 -40 -47 -9 -16 -11 -7
-12 53 0 65 -2 72 -20 72 -24 0 -25 6 -6 26 8 8 34 14 60 14 44 0 46 1 46 30
0 28 -2 30 -40 30 l-40 0 -1 93 -2 92 -8 -74 c-9 -80 -15 -95 -25 -65 -15 47
-17 47 -28 4 l-10 -45 -4 38 c-3 36 -4 37 -43 37 -37 0 -39 2 -39 30 0 28 -2
30 -40 30 -33 0 -40 3 -40 20 0 17 7 20 40 20 22 0 40 5 40 10 0 6 -18 10 -40
10 -22 0 -40 5 -40 10 0 6 -18 10 -40 10 -33 0 -40 3 -40 20 0 16 -7 20 -30
20 -37 0 -37 5 0 40 17 15 30 35 30 43 0 9 6 18 12 21 11 5 11 7 1 12 -7 3
-13 14 -13 25 0 15 -7 19 -34 19 -34 0 -35 -1 -39 -42 -2 -24 -5 34 -6 127 -2
104 -6 158 -11 140 -4 -16 -8 -56 -9 -87 -1 -77 -21 -75 -21 1 0 78 -17 87
-25 14 -8 -72 -13 -88 -14 -45 -1 31 -3 32 -41 32 -22 0 -40 5 -40 10 0 6 12
10 26 10 14 0 23 4 20 9 -4 5 -6 29 -7 53 -1 23 -3 52 -6 63 -6 19 -6 18 -14
-3 -5 -13 -6 -34 -3 -47 3 -12 1 -26 -5 -29 -7 -5 -11 7 -11 33 l0 41 -60 0
c-53 0 -60 2 -60 20 0 17 7 20 40 20 l40 0 0 69 c0 39 -4 73 -10 76 -5 3 -10
-2 -11 -12 -1 -40 -11 -118 -15 -122 -2 -2 -4 35 -4 82 l0 87 -40 0 c-33 0
-40 3 -40 20 0 18 -7 20 -80 20 -74 0 -80 1 -80 21 0 21 -50 79 -69 79 -6 0
-11 18 -11 40 0 33 -3 40 -20 40 -11 0 -20 -4 -20 -10 0 -5 -9 -10 -20 -10
-17 0 -20 7 -20 50 0 49 1 50 30 50 27 0 30 3 30 30 0 17 5 30 10 30 6 0 10 9
10 20 0 11 5 20 10 20 16 0 12 17 -6 24 -9 3 -24 -4 -38 -19 -33 -36 -46 -31
-46 15 0 23 -5 40 -11 40 -8 0 -10 -14 -6 -40 6 -45 -12 -56 -31 -17 l-11 22
0 -22 c-1 -36 -21 -27 -22 10 -2 31 -2 31 -6 3 -4 -24 -53 -86 -68 -86 -3 0
-5 11 -5 25 0 17 5 25 18 25 16 0 18 10 19 80 1 61 -2 80 -12 80 -8 0 -15 -14
-18 -33 -2 -17 -5 2 -6 43 -3 88 -18 64 -21 -35 l-2 -60 -9 59 c-12 83 -26 91
-34 20 -9 -77 -13 -89 -14 -36 -1 53 -21 56 -21 2 0 -22 -4 -40 -10 -40 -5 0
-10 18 -10 40 0 57 -27 55 -33 -2 -2 -24 -4 8 -5 70 l-2 112 -40 0 c-38 0 -40
-2 -40 -30 0 -16 -4 -30 -10 -30 -5 0 -10 18 -10 40 0 22 5 40 10 40 6 0 10
14 10 30 0 17 -4 30 -10 30 -5 0 -10 5 -10 10 0 6 7 10 15 10 9 0 31 16 50 35
30 29 35 41 35 80 l0 45 -46 0 c-38 0 -51 -5 -74 -30 -15 -16 -31 -30 -34 -30
-3 0 -6 63 -6 140 l0 140 -40 0 -40 0 -1 93 c-1 101 -15 88 -19 -18 l-2 -60
-9 59 c-5 33 -13 64 -19 70 -12 12 -10 21 -20 -134 l-7 -115 -2 145 c-2 107
-5 137 -12 115 -5 -16 -7 -39 -4 -50 2 -11 2 -31 -2 -44 -8 -32 -23 -7 -23 40
0 59 -14 55 -26 -8 l-12 -58 -1 74 c-1 77 -8 86 -21 29 -7 -34 -10 -32 -26 21
-8 24 -13 7 -20 -59 -3 -36 -8 -67 -10 -69 -2 -2 -5 49 -6 115 -1 65 -3 100
-5 76 -3 -26 -9 -42 -17 -42 -17 0 -28 100 -19 180 6 62 23 83 23 30 0 -16 5
-30 10 -30 6 0 10 37 10 93 0 62 -3 87 -10 77 -5 -8 -19 -15 -31 -15 -20 0
-22 -6 -26 -85 -6 -105 -13 -117 -13 -22 0 40 -2 72 -5 72 -13 0 -75 -71 -75
-85 0 -12 -15 -15 -80 -15 -95 0 -102 11 -40 70 22 21 40 45 40 52 0 7 9 20
20 28 26 18 26 30 0 30 -18 0 -20 7 -20 70 l0 70 -40 0 c-33 0 -40 3 -40 20 0
17 7 20 40 20 22 0 40 5 40 10 0 6 -18 10 -40 10 -22 0 -40 5 -40 10 0 6 -18
10 -40 10 -33 0 -40 3 -40 20 0 17 7 20 40 20 22 0 40 5 40 10 0 6 -18 10 -39
10 -37 0 -40 -2 -54 -42 l-15 -43 -7 33 c-10 42 -33 42 -38 0 -2 -18 -5 22 -5
90 l-2 122 -40 0 c-22 0 -40 5 -40 10 0 6 -9 10 -20 10 -17 0 -20 7 -20 40 0
22 5 40 11 40 6 0 8 9 3 23 -3 12 -3 19 1 15 5 -4 11 -25 15 -45 6 -27 8 -6 9
70 1 103 0 107 -18 98 -23 -13 -34 -38 -19 -43 7 -3 2 -14 -13 -29 l-24 -24
-3 28 c-4 32 -22 36 -23 5 l0 -23 -11 23 c-14 28 -35 28 -41 0 -2 -13 -5 5 -6
40 0 35 3 62 9 62 6 0 10 18 10 40 0 22 -4 40 -10 40 -5 0 -10 14 -10 30 0 28
-2 30 -40 30 -22 0 -40 5 -40 10 0 6 -18 10 -40 10 l-40 0 0 40 0 40 40 0 c22
0 40 5 40 10 0 6 -18 10 -40 10 l-40 0 0 70 c0 68 1 70 25 70 23 0 24 2 28 83
l3 82 2 -82 c3 -132 22 -100 22 37 0 73 -4 120 -10 120 -5 0 -10 -12 -10 -27
-1 -27 -1 -27 -15 -9 -8 11 -17 18 -19 15 -2 -2 -9 -35 -14 -74 l-9 -70 -3 80
c-2 71 -3 76 -11 40 -4 -22 -8 -75 -8 -117 -1 -43 -5 -78 -10 -78 -11 0 -24
134 -16 159 3 11 1 22 -5 26 -6 4 -10 -11 -11 -42 0 -26 -4 -70 -9 -98 -6 -40
-8 -26 -9 73 0 67 3 122 8 122 5 0 7 -10 4 -22 l-6 -23 20 23 c14 15 32 22 57
22 20 0 36 5 36 10 0 6 -9 10 -20 10 -13 0 -20 7 -20 20 0 17 -7 20 -40 20
l-40 0 -1 73 c-1 51 -3 65 -9 47 -4 -14 -8 -42 -9 -62 -1 -51 -21 -49 -21 2 0
22 -4 40 -10 40 -6 0 -10 -31 -11 -72 -1 -40 -4 -98 -9 -128 -5 -43 -8 -19
-10 105 -2 88 -5 147 -7 130 -9 -81 -15 -99 -24 -84 -5 8 -9 30 -9 49 0 19 -4
41 -9 49 -9 15 -15 -3 -24 -84 -2 -17 -5 -7 -6 23 l-1 52 -40 0 c-33 0 -40 -3
-40 -20 0 -11 -4 -20 -10 -20 -5 0 -10 -12 -10 -26 0 -14 -4 -23 -10 -19 -5 3
-10 15 -10 26 0 37 -18 19 -28 -28 -9 -43 -10 -33 -13 82 -1 72 -4 111 -6 88
-6 -58 -33 -60 -33 -3 0 57 -27 55 -33 -2 -2 -24 -4 12 -5 79 -2 87 -6 123
-14 126 -7 2 -9 8 -5 13 4 5 12 3 16 -5 5 -7 19 -11 32 -9 l24 3 -29 28 c-16
15 -24 27 -17 27 6 0 11 7 11 16 0 9 14 29 30 44 35 33 38 62 8 82 -18 12 -21
23 -19 66 1 31 -2 52 -9 52 -5 0 -10 18 -10 40 0 22 -4 40 -10 40 -13 0 -13
-77 1 -82 13 -4 -6 -58 -21 -58 -5 0 -10 -7 -10 -15 0 -22 -52 -73 -58 -57 -2
7 -12 12 -23 12 -10 0 -19 5 -19 10 0 6 5 10 10 10 6 0 10 5 10 10 0 6 -9 10
-20 10 -27 0 -25 7 10 40 29 27 30 31 30 114 l0 86 -40 0 -40 0 0 40 0 40 40
0 c22 0 40 5 40 10 0 6 -18 10 -40 10 -38 0 -40 1 -40 33 0 24 -3 28 -10 17
-6 -10 -10 -11 -10 -2 0 6 -7 12 -16 12 -23 0 -44 25 -44 54 0 24 -4 26 -40
26 -33 0 -40 3 -40 20 0 16 7 20 38 20 26 0 42 6 52 20 8 11 20 20 28 20 26 0
42 28 42 74 l0 46 -39 0 c-22 0 -42 6 -45 13 -5 10 -7 10 -12 0 -4 -9 -29 -13
-75 -13 -67 0 -69 1 -69 26 0 33 21 54 54 54 19 0 26 5 26 20 0 16 -7 20 -30
20 -16 0 -30 3 -30 6 0 11 29 34 44 34 9 0 16 5 16 10 0 6 -18 10 -40 10 -38
0 -40 -2 -40 -30 0 -23 -4 -30 -20 -30 -16 0 -20 6 -18 28 2 33 -8 52 -28 52
-10 0 -14 12 -14 40 l0 40 40 0 c22 0 40 5 40 10 0 6 -18 10 -40 10 -22 0 -40
5 -40 10 0 6 -18 10 -40 10 l-40 0 -2 203 c0 111 -3 186 -5 167 -10 -112 -15
-140 -24 -135 -5 4 -9 33 -9 66 0 33 -4 59 -10 59 -5 0 -10 -26 -11 -57 -1
-32 -5 -69 -9 -83 -4 -14 -9 134 -11 330 -2 257 -4 325 -9 245 -9 -130 -7
-122 -21 -108 -6 6 -11 48 -10 99 1 99 -13 143 -24 80 -4 -21 -5 -59 -3 -84 3
-26 2 -60 -2 -77 -5 -19 -9 17 -10 95 -2 69 -5 107 -7 85 -2 -22 -6 -55 -9
-74 -8 -52 -24 -19 -24 52 0 43 -4 57 -15 57 -11 0 -15 -17 -18 -72 -2 -56 -3
-46 -5 40 l-2 112 40 0 c22 0 40 5 40 10 0 6 -18 10 -40 10 -22 0 -40 -4 -40
-10 0 -5 -18 -10 -40 -10 l-40 0 0 160 0 160 -40 0 -40 0 0 60 0 60 -40 0
c-33 0 -40 3 -40 20 0 17 7 20 40 20 22 0 40 5 40 10 0 6 -18 10 -40 10 -38 0
-40 2 -40 30 0 25 4 30 25 30 27 0 82 46 70 58 -4 4 -10 1 -12 -5 -3 -8 -22
-13 -44 -13 l-39 0 0 56 c0 52 3 58 40 94 22 21 40 41 40 44 0 3 -18 6 -40 6
l-40 0 -1 123 c0 113 -2 119 -14 87 l-13 -35 -7 33 c-4 17 -13 32 -21 32 -7 0
-15 -14 -17 -32 -2 -18 -5 0 -5 40 l-2 72 -40 0 -40 0 0 40 c0 38 2 40 30 40
28 0 30 2 30 40 0 38 -2 40 -30 40 -28 0 -30 2 -30 40 l0 40 40 0 40 0 0 520
c0 513 0 520 20 520 19 0 20 7 20 120 0 73 4 120 10 120 6 0 10 18 10 40 0 22
-4 40 -10 40 -5 0 -10 18 -10 40 0 22 5 40 10 40 6 0 10 18 10 40 0 22 5 40
10 40 6 0 10 18 10 40 0 22 5 40 10 40 6 0 10 47 10 120 0 73 4 120 10 120 6
0 10 47 10 120 0 113 -1 120 -20 120 -19 0 -20 7 -20 100 l0 100 -40 0 c-33 0
-40 3 -40 20 0 17 -7 20 -40 20 l-40 0 0 160 0 160 40 0 40 0 0 80 0 80 -40 0
-40 0 0 40 0 40 40 0 40 0 0 40 c0 33 -3 40 -20 40 -17 0 -20 7 -20 40 0 22 5
40 10 40 6 0 10 87 10 240 0 153 4 240 10 240 6 0 10 73 10 200 l0 200 40 0
40 0 0 -40 c0 -22 5 -40 10 -40 6 0 10 33 10 80 0 47 4 80 10 80 6 0 10 33 10
80 0 73 -2 80 -20 80 -18 0 -20 7 -20 80 0 73 2 80 20 80 18 0 20 7 20 80 0
73 -2 80 -20 80 -19 0 -20 7 -20 150 l0 150 40 0 c22 0 40 5 40 10 0 6 -18 10
-40 10 l-40 0 0 40 0 40 40 0 40 0 0 202 c0 194 -4 226 -20 156 -7 -33 -9 -32
-25 18 -9 28 -15 11 -24 -67 -6 -56 -9 -5 -10 209 l-1 282 40 0 c23 0 40 5 40
11 0 7 12 23 28 38 23 22 24 26 10 29 -14 3 -18 13 -18 43 0 21 5 39 10 39 6
0 10 33 10 80 0 47 4 80 10 80 6 0 10 60 10 160 0 100 4 160 10 160 6 0 10 47
10 120 0 73 -4 120 -10 120 -5 0 -10 18 -10 40 0 33 3 40 20 40 17 0 20 7 20
40 0 22 -4 40 -10 40 -5 0 -10 18 -10 40 0 22 5 40 10 40 6 0 10 33 10 80 0
47 4 80 10 80 6 0 10 18 10 40 0 33 3 40 20 40 17 0 20 7 20 40 0 22 -4 40
-10 40 -5 0 -10 18 -10 40 0 22 5 40 10 40 6 0 10 87 10 240 0 233 1 240 20
240 18 0 20 7 20 80 0 73 2 80 20 80 19 0 20 7 20 160 0 153 1 160 20 160 19
0 20 7 20 160 0 153 1 160 20 160 19 0 20 7 20 200 0 127 4 200 10 200 6 0 10
18 10 40 0 22 -4 40 -10 40 -6 0 -10 60 -10 160 0 153 1 160 20 160 19 0 20
-7 20 -160 l0 -160 29 0 c16 0 31 -6 33 -12 9 -25 38 20 38 56 0 20 5 36 10
36 6 0 10 18 10 40 0 22 5 40 10 40 6 0 10 33 10 80 0 47 -4 80 -10 80 -5 0
-10 23 -10 50 0 28 -4 50 -10 50 -5 0 -10 -4 -10 -10 0 -5 -7 -10 -16 -10 -23
0 -44 -25 -44 -54 0 -14 -4 -26 -10 -26 -5 0 -10 18 -10 40 0 22 5 40 10 40 6
0 10 87 10 240 l0 240 40 0 40 0 0 40 c0 22 -4 40 -10 40 -5 0 -10 18 -10 40
0 22 5 40 10 40 6 0 10 47 10 120 l0 120 40 0 40 0 0 -40 c0 -22 5 -40 10 -40
6 0 10 18 10 40 0 22 -4 40 -10 40 -6 0 -10 77 -10 210 0 133 4 210 10 210 6
0 10 -4 10 -10 0 -5 9 -10 20 -10 11 0 20 -4 20 -10 0 -5 5 -10 10 -10 6 0 10
23 10 50 0 43 3 50 20 50 18 0 20 7 20 80 l0 80 40 0 40 0 0 160 c0 153 1 160
20 160 13 0 20 7 20 20 0 13 -7 20 -20 20 -13 0 -20 7 -20 20 0 13 7 20 20 20
17 0 20 7 20 40 0 22 -4 40 -10 40 -5 0 -10 18 -10 40 0 33 3 40 20 40 19 0
20 7 20 120 0 73 -4 120 -10 120 -5 0 -10 18 -10 40 0 38 2 40 30 40 28 0 30
2 30 40 0 22 5 40 10 40 6 0 10 47 10 120 0 73 4 120 10 120 6 0 10 18 10 40
0 22 5 40 10 40 6 0 10 18 10 40 0 22 5 40 10 40 6 0 10 18 10 40 0 22 5 40
10 40 6 0 10 5 10 11 0 7 12 23 28 38 23 22 24 26 10 29 -15 3 -18 15 -18 83
0 46 4 79 10 79 6 0 10 18 10 40 0 38 2 40 30 40 28 0 30 2 30 40 0 22 5 40
10 40 6 0 10 18 10 40 0 57 27 55 33 -2 2 -24 5 67 7 202 3 234 3 241 14 160
l12 -85 7 64 c4 35 7 90 7 122 0 52 2 59 20 59 19 0 20 7 20 120 l0 120 40 0
40 0 0 120 0 120 40 0 40 0 0 40 c0 22 5 40 10 40 6 0 10 18 10 40 0 22 5 40
10 40 6 0 10 18 10 40 0 33 3 40 20 40 19 0 20 7 20 120 0 113 1 120 20 120
18 0 20 7 20 80 0 47 4 80 10 80 6 0 10 33 10 80 0 73 2 80 20 80 17 0 20 7
20 40 0 22 5 40 10 40 6 0 10 18 10 40 0 22 5 40 10 40 6 0 10 18 10 40 0 22
5 40 10 40 6 0 10 18 10 40 0 30 4 40 16 40 14 0 15 10 9 80 -7 77 -6 80 14
80 18 0 21 6 21 40 0 22 5 40 10 40 6 0 10 -18 10 -40 0 -22 5 -40 10 -40 6 0
10 18 10 40 0 22 -4 40 -10 40 -5 0 -10 9 -10 20 0 17 7 20 40 20 33 0 40 3
40 19 0 11 -7 21 -17 23 -15 3 -15 4 0 17 15 12 17 11 17 -3 0 -9 5 -16 10
-16 6 0 10 18 10 40 0 22 5 40 10 40 6 0 10 18 10 40 0 22 5 40 10 40 6 0 10
18 10 40 0 22 5 40 10 40 6 0 10 18 10 40 0 22 5 40 10 40 6 0 10 18 10 40 0
22 5 40 10 40 6 0 10 73 10 200 l0 200 -60 0 -60 0 0 80 c0 72 2 80 19 80 11
0 22 6 25 13 5 10 7 10 12 0 12 -27 24 -11 24 33 0 40 5 50 40 84 40 38 40 39
40 114 0 69 2 76 20 76 18 0 20 7 20 80 0 73 2 80 20 80 18 0 20 7 20 60 l0
60 40 0 40 0 0 100 c0 93 1 100 20 100 17 0 20 7 20 40 0 22 5 40 10 40 6 0
10 18 10 40 0 22 5 40 10 40 6 0 10 18 10 40 0 33 3 40 20 40 15 0 20 7 20 29
0 16 6 32 13 35 10 5 10 7 0 12 -9 4 -13 31 -13 85 0 72 2 79 20 79 18 0 20 7
20 60 l0 60 40 0 c33 0 40 -3 40 -20 0 -16 7 -20 30 -20 28 0 30 2 30 40 0 22
5 40 10 40 6 0 10 18 10 40 0 38 2 40 30 40 28 0 30 2 30 40 0 22 5 40 10 40
6 0 10 18 10 40 0 33 3 40 20 40 17 0 20 7 20 40 0 22 5 40 10 40 6 0 10 18
10 40 0 22 5 40 10 40 6 0 10 18 10 40 l0 40 -40 0 -40 0 0 40 c0 33 -3 40
-20 40 -17 0 -20 -7 -20 -40 0 -33 3 -40 20 -40 13 0 20 -7 20 -20 0 -16 -7
-20 -30 -20 -23 0 -30 -4 -30 -20 0 -11 -4 -20 -10 -20 -5 0 -10 9 -10 20 0
17 -7 20 -40 20 -33 0 -40 3 -40 20 0 16 -7 20 -30 20 -28 0 -30 -2 -30 -40 0
-22 -4 -40 -10 -40 -5 0 -10 -18 -10 -40 0 -33 -3 -40 -20 -40 -18 0 -20 -7
-20 -80 0 -73 -2 -80 -20 -80 -13 0 -20 7 -20 20 0 18 -7 20 -80 20 -73 0 -80
2 -80 20 0 18 -7 20 -80 20 l-80 0 0 40 0 40 -40 0 -40 0 -2 83 c-1 51 -3 63
-5 32 -2 -27 -6 -65 -9 -84 -9 -57 -26 -20 -25 58 0 59 -2 71 -16 71 -13 0
-15 -9 -11 -52 3 -29 1 -66 -3 -83 -3 -16 -7 115 -8 293 -1 315 -1 322 -21
322 -17 0 -20 -7 -20 -40 l0 -40 -60 0 -60 0 0 160 0 160 40 0 40 0 0 40 0 40
-40 0 -40 0 0 40 0 40 40 0 40 0 0 120 0 120 -40 0 -40 0 0 80 0 80 -60 0 -60
0 0 -40 c0 -33 -3 -40 -20 -40 -17 0 -20 -7 -20 -40 l0 -40 40 0 40 0 0 -40 0
-40 -40 0 -40 0 0 -40 0 -40 -40 0 -40 0 0 -120 0 -120 -40 0 -40 0 0 -60 0
-60 -40 0 c-33 0 -40 3 -40 20 0 16 7 20 30 20 28 0 30 2 30 40 0 38 -2 40
-30 40 -28 0 -30 2 -30 40 0 33 3 40 20 40 17 0 20 7 20 40 0 33 -3 40 -20 40
-11 0 -20 -4 -20 -10 0 -5 -18 -10 -40 -10 -22 0 -40 5 -40 10 0 6 -18 10 -40
10 l-40 0 0 40 0 40 -40 0 -40 0 0 40 c0 22 -4 40 -10 40 -5 0 -10 -18 -10
-40 0 -22 5 -40 10 -40 6 0 10 -16 10 -36 0 -28 -10 -48 -40 -84 -30 -36 -40
-56 -40 -84 0 -35 1 -36 40 -36 l40 0 0 -40 0 -40 -40 0 -40 0 0 -40 0 -40
-40 0 -40 0 0 -120 c0 -73 -4 -120 -10 -120 -5 0 -10 18 -10 40 0 38 -2 40
-30 40 -16 0 -30 -4 -30 -10 0 -5 -18 -10 -40 -10 -22 0 -40 5 -40 10 0 6 18
10 40 10 l40 0 0 200 0 200 -80 0 -80 0 0 40 0 40 40 0 40 0 0 80 c0 73 2 80
20 80 17 0 20 -7 20 -40 0 -35 3 -40 24 -40 16 0 35 14 60 44 34 42 36 48 36
120 0 69 2 76 20 76 17 0 20 7 20 40 l0 40 -60 0 -60 0 0 40 0 40 40 0 40 0 0
120 0 120 -60 0 -60 0 0 -40 c0 -33 -3 -40 -20 -40 -11 0 -20 -5 -20 -11 0 -7
-12 -23 -27 -38 -24 -22 -25 -26 -10 -29 13 -3 17 -13 17 -43 0 -32 -3 -39
-20 -39 -17 0 -20 -7 -20 -40 0 -53 -18 -51 -23 3 l-4 42 -1 -42 c-1 -31 -6
-43 -17 -43 -11 0 -15 -11 -15 -40 0 -22 -4 -40 -9 -40 -5 0 -12 -36 -16 -80
l-7 -80 -34 0 c-33 0 -34 -1 -34 -40 0 -22 -4 -40 -10 -40 -6 0 -10 33 -10 80
l0 80 -30 0 -30 0 0 -80 c0 -47 -4 -80 -10 -80 -6 0 -10 47 -10 120 l0 120
-80 0 -80 0 -1 43 c-1 26 -5 12 -9 -38 -5 -47 -4 -81 1 -83 5 -2 9 -21 9 -43
0 -39 0 -39 -40 -39 l-40 0 0 77 c0 108 -9 86 -15 -37 -4 -102 -10 -128 -20
-96 -16 50 -18 51 -25 18 -10 -45 -20 -52 -20 -14 0 31 -2 32 -40 32 -25 0
-40 5 -41 13 0 6 -7 -4 -14 -23 l-13 -35 -7 33 c-4 17 -13 32 -21 32 -7 0 -15
-14 -17 -32 -2 -18 -5 1 -6 42 -3 73 -3 74 -13 32 -10 -46 -28 -48 -28 -2 0
46 -18 44 -28 -2 -9 -40 -10 -37 -11 42 l-2 85 -37 -43 c-20 -23 -43 -42 -49
-42 -7 0 -13 -12 -13 -26 0 -14 -4 -23 -10 -19 -5 3 -10 15 -10 26 0 34 -17
20 -27 -23 l-11 -43 -1 43 -1 42 -40 0 -40 0 0 40 0 40 -40 0 -40 0 0 40 0 40
-40 0 -40 0 0 -40 c0 -33 -3 -40 -20 -40 -17 0 -20 -7 -20 -40 0 -33 3 -40 20
-40 17 0 20 7 20 40 l0 40 40 0 40 0 0 -40 c0 -33 -3 -40 -20 -40 -17 0 -20
-7 -20 -40 0 -22 -4 -40 -10 -40 -6 0 -10 -33 -10 -80 0 -47 -4 -80 -10 -80
-5 0 -10 -18 -10 -40 l0 -40 -40 0 -40 0 0 40 0 40 -44 0 c-40 0 -48 -4 -73
-36 -21 -28 -26 -45 -24 -76 2 -24 -2 -44 -9 -48 -10 -6 -10 -33 0 -124 7 -64
17 -116 22 -116 4 0 8 36 8 80 0 47 4 80 10 80 6 0 10 -33 10 -80 0 -47 4 -80
10 -80 6 0 10 -4 10 -10 0 -5 -18 -10 -40 -10 l-40 0 0 90 0 90 -30 0 c-28 0
-30 -2 -30 -40 l0 -40 -50 0 -50 0 0 80 0 80 -60 0 -60 0 0 -40 c0 -33 -3 -40
-20 -40 -17 0 -20 -7 -20 -40 l0 -40 -40 0 -40 0 0 240 c0 153 -4 240 -10 240
-5 0 -10 -18 -10 -40 0 -22 -4 -40 -10 -40 -5 0 -10 -18 -10 -40 0 -22 -4 -40
-10 -40 -5 0 -10 -18 -10 -40 0 -40 0 -40 -39 -40 l-38 0 -10 -82 c-9 -76 -10
-67 -12 120 0 129 3 202 9 202 6 0 10 18 10 40 0 22 -4 40 -10 40 -5 0 -10
-18 -10 -40 0 -22 -4 -40 -10 -40 -5 0 -10 -18 -10 -40 0 -22 -4 -40 -10 -40
-5 0 -10 -18 -10 -39 0 -22 -4 -41 -10 -43 -5 -1 -14 -57 -19 -123 -8 -117 -8
-118 -10 -37 -1 75 -3 82 -21 82 -17 0 -20 -7 -20 -40 0 -22 -4 -40 -9 -40 -4
0 -11 -32 -15 -71 -3 -39 -9 -75 -12 -80 -3 -5 -18 -9 -35 -9 -27 0 -29 -2
-29 -40 0 -22 -4 -40 -10 -40 -5 0 -10 -18 -10 -40 0 -38 -2 -40 -30 -40 l-30
0 0 -80 c0 -47 -4 -80 -10 -80 -5 0 -10 -18 -10 -40 l0 -40 -50 0 -50 0 0 -40
c0 -22 -4 -40 -10 -40 -5 0 -10 18 -10 40 0 57 -27 55 -33 -2 -2 -29 -4 -18
-5 30 l-2 72 -40 0 -40 0 0 130 0 130 40 0 c22 0 40 5 40 10 0 6 -18 10 -40
10 -22 0 -40 -4 -40 -10 0 -5 -9 -10 -20 -10 -18 0 -20 -7 -20 -80 0 -64 3
-80 15 -80 11 0 13 -8 8 -32 -7 -41 -11 -46 -18 -24 -18 57 -18 57 -29 4 -6
-27 -9 -28 -71 -28 l-65 0 0 -39 c0 -22 -4 -41 -10 -43 -5 -1 -14 -57 -19
-123 l-8 -120 -2 183 -1 182 -40 0 c-33 0 -40 -3 -40 -20 0 -11 5 -20 10 -20
6 0 10 -47 10 -120 0 -73 -4 -120 -10 -120 -6 0 -10 47 -10 120 0 113 -1 120
-20 120 -17 0 -20 -7 -20 -40 l0 -40 -40 0 -40 0 0 -40 c0 -22 -4 -40 -10 -40
-6 0 -10 -47 -10 -120 0 -73 -4 -120 -10 -120 -6 0 -10 33 -10 80 0 73 -2 80
-20 80 -18 0 -20 -7 -20 -80 0 -47 -4 -80 -10 -80 -5 0 -10 -18 -10 -40 0 -22
-4 -40 -10 -40 -5 0 -10 18 -10 40 0 22 -4 40 -10 40 -5 0 -10 -18 -10 -40 0
-22 -4 -40 -10 -40 -5 0 -10 18 -10 40 0 57 -27 55 -33 -2 l-4 -43 -1 43 c-2
45 -22 60 -22 16 0 -14 -4 -23 -10 -19 -5 3 -10 15 -10 26 0 34 -17 20 -27
-23 l-11 -43 -1 59 c-1 58 -1 59 -21 41 -13 -12 -20 -31 -20 -57 0 -31 -4 -38
-19 -38 -16 0 -21 8 -24 43 l-4 42 -1 -42 c-1 -31 -6 -43 -17 -43 -11 0 -15
11 -15 40 0 30 -4 40 -16 40 -14 0 -15 -10 -9 -80 5 -56 4 -80 -4 -80 -7 0
-11 31 -11 90 l0 90 -40 0 c-22 0 -40 -4 -40 -10 0 -5 9 -10 20 -10 17 0 20
-7 20 -40 0 -29 -4 -40 -15 -40 -11 0 -15 -11 -15 -40 0 -39 -1 -40 -34 -40
l-34 0 -7 -80 c-7 -76 -8 -80 -31 -80 -21 0 -24 -4 -24 -40 0 -22 -4 -40 -10
-40 -6 0 -10 -33 -10 -80 0 -47 -4 -80 -10 -80 -5 0 -10 18 -10 40 l0 40 -40
0 -40 0 0 -40 c0 -32 -4 -40 -19 -40 -15 0 -19 -11 -25 -61 -3 -34 -6 -88 -6
-120 0 -33 -4 -59 -9 -59 -6 0 -11 -17 -13 -37 -2 -21 -3 14 -2 77 1 63 0 98
-3 78 -4 -37 -5 -38 -44 -38 l-39 0 0 80 0 80 -40 0 -40 0 0 40 c0 33 -3 40
-20 40 -17 0 -20 -7 -20 -40 0 -33 -3 -40 -20 -40 -18 0 -20 -7 -20 -80 l0
-80 -30 0 c-28 0 -30 -2 -30 -40 0 -22 -4 -40 -10 -40 -6 0 -10 47 -10 120 0
113 1 120 20 120 17 0 20 7 20 38 0 26 7 45 20 57 11 10 20 29 20 42 0 16 6
23 20 23 17 0 20 7 20 40 0 22 -4 40 -10 40 -5 0 -10 18 -10 40 0 22 5 40 10
40 6 0 10 18 10 40 0 30 4 40 16 40 14 0 16 8 11 58 -4 31 -1 103 5 160 10 88
14 102 30 102 14 0 18 8 18 40 0 27 4 40 13 40 18 0 31 212 17 261 -6 19 -10
58 -10 86 0 41 4 53 15 53 20 0 85 65 85 85 0 8 5 15 10 15 6 0 10 14 10 30 0
17 5 30 10 30 6 0 10 18 10 40 0 22 5 40 10 40 6 0 10 18 10 40 0 22 5 40 10
40 6 0 10 73 10 200 l0 200 -40 0 -40 0 0 -80 c0 -47 -4 -80 -10 -80 -6 0 -10
47 -10 120 0 73 4 120 10 120 6 0 10 18 10 40 0 33 3 40 20 40 17 0 20 7 20
40 0 33 3 40 20 40 19 0 20 7 20 160 l0 160 30 0 c28 0 30 2 30 40 0 22 5 40
10 40 6 0 10 47 10 120 l0 120 40 0 40 0 0 40 c0 31 -4 40 -17 40 -15 0 -15 1
0 18 12 13 17 37 17 80 0 55 2 62 20 62 13 0 20 7 20 20 0 13 -7 20 -20 20
-17 0 -20 7 -20 40 l0 40 -40 0 c-33 0 -40 -3 -40 -20 0 -16 -7 -20 -30 -20
l-30 0 0 120 c0 73 -4 120 -10 120 -6 0 -10 -60 -10 -160 l0 -160 -40 0 -40 0
0 40 c0 33 -3 40 -20 40 -17 0 -20 7 -20 40 0 29 -4 40 -15 40 -11 0 -13 8 -8
33 7 40 11 45 18 23 16 -50 18 -52 25 -21 4 17 8 69 9 118 l1 87 65 0 65 0 0
80 c0 73 2 80 20 80 19 0 20 -7 22 -182 1 -181 2 -182 8 -68 4 63 8 145 9 183
1 64 2 67 26 67 24 0 25 3 27 58 1 31 4 3 8 -63 l5 -120 8 180 c5 99 13 182
18 183 5 2 9 21 9 43 0 21 5 39 10 39 6 0 10 18 10 40 0 22 5 40 10 40 6 0 10
-19 10 -42 0 -23 2 -39 5 -36 6 6 14 141 15 251 0 38 4 67 10 67 6 0 10 -25
10 -55 0 -30 5 -55 10 -55 6 0 10 25 10 55 0 30 -4 55 -10 55 -5 0 -10 18 -10
40 l0 40 -50 0 -50 0 0 40 c0 22 5 40 10 40 6 0 10 18 10 40 0 33 3 40 20 40
17 0 20 7 20 40 0 22 -4 40 -10 40 -5 0 -10 18 -10 40 0 33 3 40 20 40 17 0
20 7 20 40 0 22 -4 40 -10 40 -5 0 -10 18 -10 40 l0 40 40 0 40 0 0 120 0 120
40 0 40 0 0 40 c0 22 -4 40 -10 40 -5 0 -10 18 -10 40 0 22 5 40 10 40 6 0 10
47 10 120 l0 120 30 0 c28 0 30 2 30 40 0 22 5 40 10 40 6 0 10 33 10 80 l0
80 40 0 40 0 0 160 0 160 40 0 40 0 0 120 0 120 -40 0 -40 0 0 40 0 40 -80 0
-80 0 0 40 c0 34 3 40 20 40 19 0 21 5 19 52 -2 43 1 54 19 66 12 8 22 21 22
28 0 8 9 14 20 14 17 0 20 7 20 40 0 33 3 40 20 40 17 0 20 7 20 40 0 38 2 40
31 40 l30 0 -2 86 c-1 53 2 89 10 97 8 8 11 -3 11 -46 l0 -57 40 0 40 0 0 40
c0 33 3 40 20 40 17 0 20 7 20 40 0 22 5 40 11 40 6 0 9 18 8 45 -2 25 2 50 9
57 9 9 12 8 12 -5 0 -12 8 -17 30 -17 l30 0 0 80 c0 47 -4 80 -10 80 -5 0 -10
-18 -10 -40 0 -53 -18 -51 -22 3 -2 33 3 49 24 78 24 31 28 47 31 120 1 46 4
-7 5 -118 1 -127 6 -203 12 -203 6 0 10 18 10 40 0 22 5 40 10 40 6 0 10 33
10 79 0 51 4 81 11 83 9 3 12 73 13 241 1 130 4 237 9 237 4 0 7 -108 7 -240
0 -153 4 -240 10 -240 6 0 10 33 10 80 0 47 4 80 10 80 6 0 10 18 10 40 0 31
4 40 17 40 14 0 15 12 10 116 -6 110 -10 134 -22 122 -3 -2 -9 -58 -14 -124
l-8 -119 -2 123 c0 74 -5 122 -11 122 -5 0 -10 18 -10 40 0 33 3 40 20 40 18
0 20 7 20 80 0 47 4 80 10 80 6 0 10 18 10 40 0 38 -2 40 -30 40 -28 0 -30 2
-30 40 0 22 -4 40 -10 40 -5 0 -10 18 -10 40 0 22 5 40 10 40 6 0 10 33 10 80
l0 80 30 0 30 0 0 80 c0 47 4 80 10 80 6 0 10 18 10 40 0 22 -4 40 -10 40 -5
0 -10 18 -10 40 l0 40 40 0 40 0 0 40 c0 38 2 40 30 40 28 0 30 2 30 40 0 22
-4 40 -10 40 -5 0 -10 18 -10 40 0 22 5 40 10 40 6 0 10 -18 10 -40 0 -29 4
-40 15 -40 11 0 15 12 17 43 1 36 2 38 5 10 4 -31 7 -33 44 -33 21 0 39 -4 39
-10 0 -5 5 -10 10 -10 6 0 10 18 10 40 0 22 5 40 10 40 6 0 10 18 10 40 0 22
4 40 9 40 5 0 12 36 16 80 6 68 10 80 25 80 15 0 19 12 25 80 6 72 9 80 27 80
19 0 20 4 14 61 -3 34 -6 70 -6 80 0 11 -7 19 -15 19 -11 0 -15 -11 -15 -40 0
-57 -27 -55 -33 3 -2 23 -4 -13 -5 -80 l-2 -123 -40 0 -40 0 -1 -42 -2 -43 -8
50 c-4 28 -6 84 -3 125 2 41 0 147 -4 235 -6 112 -9 136 -10 79 -4 -200 -15
-324 -28 -324 -11 0 -14 42 -17 203 l-2 202 -4 -245 c-4 -240 -4 -243 -16
-160 -9 63 -13 74 -14 43 -1 -36 -4 -43 -22 -43 -20 0 -20 4 -15 118 6 138 4
122 16 122 6 0 10 -9 10 -19 0 -11 5 -23 10 -26 6 -4 10 5 10 19 0 14 -4 26
-10 26 -6 0 -10 33 -10 80 l0 80 -60 0 -60 0 0 80 0 80 30 0 c28 0 30 2 30 40
0 22 5 40 10 40 6 0 10 18 10 40 0 22 -4 40 -10 40 -5 0 -10 18 -10 40 l0 40
-47 0 c-44 0 -45 1 -30 18 10 10 17 28 17 40 0 19 6 22 40 22 l40 0 0 -40 c0
-33 3 -40 20 -40 18 0 20 -7 20 -80 l0 -80 80 0 80 0 0 80 c0 73 2 80 20 80
19 0 20 7 20 120 0 113 1 120 20 120 17 0 20 7 20 40 0 33 3 40 20 40 15 0 20
7 20 29 0 16 6 32 12 35 11 5 11 7 1 12 -7 3 -13 23 -13 45 0 39 0 39 39 39
22 0 41 -3 44 -7 2 -5 2 -2 0 5 -1 8 -3 47 -3 88 l0 74 -60 0 -60 0 0 80 0 80
99 0 98 0 8 110 c3 60 3 119 0 131 -6 17 -1 27 16 40 19 14 22 25 20 68 -1 30
2 51 9 51 6 0 10 34 10 90 0 53 4 90 10 90 6 0 10 -64 10 -172 0 -94 2 -169 4
-167 9 9 14 559 5 559 -5 0 -9 -45 -9 -100 0 -60 -4 -100 -10 -100 -5 0 -10 9
-10 20 0 11 -4 20 -10 20 -6 0 -10 33 -10 80 0 73 -2 80 -20 80 -13 0 -20 7
-20 20 0 17 -7 20 -40 20 l-40 0 -1 63 c-1 65 -4 63 -14 -15 -9 -68 -25 -60
-25 12 0 64 -19 85 -21 23 -1 -21 -5 -49 -9 -63 -8 -24 -8 -24 -9 -2 -1 18 -7
22 -31 22 -23 0 -30 -4 -30 -20 0 -11 -4 -20 -10 -20 -6 0 -10 27 -10 60 0 53
2 60 20 60 17 0 20 7 20 40 0 33 3 40 20 40 17 0 20 7 20 40 l0 40 -40 0 -40
0 0 -40 c0 -23 -5 -40 -11 -40 -8 0 -10 18 -5 61 3 34 7 116 7 183 1 67 4 111
6 99 4 -19 11 -23 44 -23 l39 0 0 -97 c0 -95 0 -96 20 -78 17 15 20 31 20 97
0 71 -2 78 -20 78 -17 0 -20 7 -20 39 0 36 -3 40 -27 43 l-28 3 28 26 c23 22
27 35 27 78 l0 51 40 0 40 0 0 -40 c0 -33 3 -40 20 -40 17 0 20 7 20 40 0 33
-3 40 -20 40 -17 0 -20 7 -20 39 0 36 -3 40 -27 43 l-28 3 28 26 c31 30 35 49
10 49 -15 0 -15 1 0 18 12 13 17 37 17 80 l0 62 -4680 0 -4680 0 0 -24000z
m9147 23218 c-2 -13 -4 -3 -4 22 0 25 2 35 4 23 2 -13 2 -33 0 -45z m333 -518
c0 -11 -4 -20 -10 -20 -5 0 -10 9 -10 20 0 11 5 20 10 20 6 0 10 -9 10 -20z
m0 -140 c0 -47 -4 -80 -10 -80 -6 0 -10 33 -10 80 0 47 4 80 10 80 6 0 10 -33
10 -80z m-40 -80 c0 -47 -4 -80 -10 -80 -5 0 -10 18 -10 40 0 22 -4 40 -10 40
-5 0 -10 18 -10 40 0 33 3 40 20 40 18 0 20 -7 20 -80z m-160 -630 c0 -5 -18
-10 -40 -10 -22 0 -40 5 -40 10 0 6 18 10 40 10 22 0 40 -4 40 -10z m-80 -155
c0 -8 -7 -15 -16 -15 -14 0 -14 3 -4 15 7 8 14 15 16 15 2 0 4 -7 4 -15z
m-240 -1135 c0 -73 -2 -80 -20 -80 -17 0 -20 7 -20 40 0 33 -3 40 -20 40 -17
0 -20 7 -20 40 l0 40 40 0 40 0 0 -80z m107 -222 c-2 -13 -4 -3 -4 22 0 25 2
35 4 23 2 -13 2 -33 0 -45z m-110 -80 c-2 -13 -4 -3 -4 22 0 25 2 35 4 23 2
-13 2 -33 0 -45z m83 -58 c0 -22 -4 -40 -10 -40 -5 0 -10 18 -10 40 0 22 5 40
10 40 6 0 10 -18 10 -40z m-323 -642 c-2 -24 -4 -5 -4 42 0 47 2 66 4 43 2
-24 2 -62 0 -85z m42 90 c0 -18 -4 -55 -9 -83 -7 -47 -7 -45 -9 33 0 49 3 82
9 82 6 0 10 -15 9 -32z m38 -30 c-2 -13 -4 -3 -4 22 0 25 2 35 4 23 2 -13 2
-33 0 -45z m-160 -140 c-2 -24 -4 -5 -4 42 0 47 2 66 4 43 2 -24 2 -62 0 -85z
m143 -284 c0 -3 -13 -19 -30 -34 -16 -15 -30 -33 -30 -39 0 -12 -44 -61 -55
-61 -3 0 -5 14 -5 30 0 17 5 30 10 30 6 0 10 18 10 40 l0 40 50 0 c28 0 50 -3
50 -6z m-140 -180 c0 -23 -20 -54 -34 -54 -3 0 -6 18 -6 40 0 33 3 40 20 40
15 0 20 -7 20 -26z m107 -396 c-2 -35 -3 -7 -3 62 0 69 1 97 3 63 2 -35 2 -91
0 -125z m13 -178 c0 -22 -4 -40 -10 -40 -5 0 -10 18 -10 40 0 22 5 40 10 40 6
0 10 -18 10 -40z m-363 -492 c-2 -18 -4 -4 -4 32 0 36 2 50 4 33 2 -18 2 -48
0 -65z m-397 -3048 c0 -18 -7 -20 -80 -20 -73 0 -80 2 -80 20 0 18 7 20 80 20
73 0 80 -2 80 -20z m-320 -305 c0 -19 -4 -35 -8 -35 -4 0 -6 16 -4 35 2 19 6
35 8 35 2 0 4 -16 4 -35z m-40 -26 c0 -5 -4 -9 -10 -9 -5 0 -10 7 -10 16 0 8
5 12 10 9 6 -3 10 -10 10 -16z m-13 -211 c-2 -24 -4 -5 -4 42 0 47 2 66 4 43
2 -24 2 -62 0 -85z m50 -60 c-2 -35 -3 -7 -3 62 0 69 1 97 3 63 2 -35 2 -91 0
-125z m30 120 c-2 -13 -4 -3 -4 22 0 25 2 35 4 23 2 -13 2 -33 0 -45z m133
-498 l0 -160 -50 0 -50 0 0 40 c0 33 3 40 20 40 18 0 20 7 20 80 0 47 4 80 10
80 6 0 10 18 10 40 0 33 3 40 20 40 19 0 20 -7 20 -160z m-200 -260 c0 -24 -6
-25 -26 -6 -19 20 -18 26 6 26 13 0 20 -7 20 -20z m200 0 c0 -18 -7 -20 -80
-20 -73 0 -80 2 -80 20 0 18 7 20 80 20 73 0 80 -2 80 -20z m-180 -50 c0 -5
-4 -10 -10 -10 -5 0 -10 5 -10 10 0 6 5 10 10 10 6 0 10 -4 10 -10z m-180
-290 c0 -36 -2 -40 -25 -40 -22 0 -25 4 -25 40 0 36 3 40 25 40 23 0 25 -4 25
-40z m3819 -487 c1 -18 -3 -33 -9 -33 -6 0 -9 33 -9 83 2 77 2 79 9 32 5 -27
9 -65 9 -82z m41 87 c0 -22 -4 -40 -10 -40 -5 0 -10 18 -10 40 0 22 5 40 10
40 6 0 10 -18 10 -40z m250 0 c0 -29 -4 -40 -15 -40 -11 0 -15 11 -15 40 0 29
4 40 15 40 11 0 15 -11 15 -40z m30 0 c0 -22 5 -40 10 -40 6 0 10 -18 10 -40
0 -33 -3 -40 -20 -40 -18 0 -20 7 -20 80 0 47 4 80 10 80 6 0 10 -18 10 -40z
m-1016 -55 c-4 -9 -15 -20 -25 -26 -16 -8 -19 -6 -19 16 0 20 5 25 25 25 18 0
23 -4 19 -15z m123 -107 c-2 -24 -4 -5 -4 42 0 47 2 66 4 43 2 -24 2 -62 0
-85z m53 42 c0 -47 -4 -80 -10 -80 -6 0 -10 33 -10 80 0 47 4 80 10 80 6 0 10
-33 10 -80z m-293 -152 c-2 -29 -3 -6 -3 52 0 58 1 81 3 53 2 -29 2 -77 0
-105z m80 90 c-2 -13 -4 -3 -4 22 0 25 2 35 4 23 2 -13 2 -33 0 -45z m50 0
c-2 -13 -4 -3 -4 22 0 25 2 35 4 23 2 -13 2 -33 0 -45z m30 0 c-2 -13 -4 -3
-4 22 0 25 2 35 4 23 2 -13 2 -33 0 -45z m-907 -58 c0 -22 -4 -40 -10 -40 -5
0 -10 18 -10 40 0 22 5 40 10 40 6 0 10 -18 10 -40z m957 -22 c-2 -13 -4 -3
-4 22 0 25 2 35 4 23 2 -13 2 -33 0 -45z m590 30 c-3 -7 -5 -2 -5 12 0 14 2
19 5 13 2 -7 2 -19 0 -25z m53 10 c0 -19 -2 -20 -10 -8 -13 19 -13 30 0 30 6
0 10 -10 10 -22z m-1760 -98 c0 -22 -4 -40 -10 -40 -5 0 -10 18 -10 40 0 22 5
40 10 40 6 0 10 -18 10 -40z m680 0 c0 -22 -4 -40 -10 -40 -5 0 -10 18 -10 40
0 22 5 40 10 40 6 0 10 -18 10 -40z m1900 30 c0 -5 -18 -10 -40 -10 -22 0 -40
5 -40 10 0 6 18 10 40 10 22 0 40 -4 40 -10z m-2490 -110 c0 -22 -4 -40 -10
-40 -5 0 -10 18 -10 40 0 22 5 40 10 40 6 0 10 -18 10 -40z m657 -22 c-2 -13
-4 -3 -4 22 0 25 2 35 4 23 2 -13 2 -33 0 -45z m50 0 c-2 -13 -4 -3 -4 22 0
25 2 35 4 23 2 -13 2 -33 0 -45z m683 -98 c0 -100 -4 -160 -10 -160 -6 0 -10
60 -10 160 0 100 4 160 10 160 6 0 10 -60 10 -160z m80 80 c0 -47 -4 -80 -10
-80 -6 0 -10 33 -10 80 0 47 4 80 10 80 6 0 10 -33 10 -80z m540 40 c0 -22 -4
-40 -10 -40 -5 0 -10 18 -10 40 0 22 5 40 10 40 6 0 10 -18 10 -40z m-2180
-56 c0 -8 -4 -12 -10 -9 -5 3 -10 10 -10 16 0 5 5 9 10 9 6 0 10 -7 10 -16z
m77 -46 c-2 -13 -4 -3 -4 22 0 25 2 35 4 23 2 -13 2 -33 0 -45z m683 22 c0
-22 -4 -40 -10 -40 -5 0 -10 18 -10 40 0 22 5 40 10 40 6 0 10 -18 10 -40z
m840 -40 c0 -47 -4 -80 -10 -80 -6 0 -10 33 -10 80 0 47 4 80 10 80 6 0 10
-33 10 -80z m-1363 -62 c-2 -13 -4 -3 -4 22 0 25 2 35 4 23 2 -13 2 -33 0 -45z
m1863 22 c0 -22 -4 -40 -10 -40 -5 0 -10 18 -10 40 0 22 5 40 10 40 6 0 10
-18 10 -40z m-4002 -242 l-2 -203 -5 157 c-6 161 -14 200 -26 129 -7 -42 -35
-59 -35 -21 0 11 7 20 15 20 12 0 15 13 15 60 0 53 2 60 20 60 19 0 20 -6 18
-202z m52 142 c0 -53 -2 -60 -20 -60 -18 0 -20 7 -20 60 0 53 2 60 20 60 18 0
20 -7 20 -60z m2037 -2 c-2 -13 -4 -3 -4 22 0 25 2 35 4 23 2 -13 2 -33 0 -45z
m245 27 c-2 -19 -6 -35 -8 -35 -2 0 -4 16 -4 35 0 19 4 35 8 35 4 0 6 -16 4
-35z m48 19 c0 -8 -4 -12 -10 -9 -5 3 -10 10 -10 16 0 5 5 9 10 9 6 0 10 -7
10 -16z m112 -19 c-2 -19 -6 -35 -8 -35 -2 0 -4 16 -4 35 0 19 4 35 8 35 4 0
6 -16 4 -35z m48 19 c0 -8 -4 -12 -10 -9 -5 3 -10 10 -10 16 0 5 5 9 10 9 6 0
10 -7 10 -16z m877 -46 c-2 -13 -4 -3 -4 22 0 25 2 35 4 23 2 -13 2 -33 0 -45z
m-1467 -22 c0 -2 -7 -9 -15 -16 -12 -10 -15 -10 -15 4 0 9 7 16 15 16 8 0 15
-2 15 -4z m630 -36 c0 -22 -4 -40 -10 -40 -5 0 -10 18 -10 40 0 22 5 40 10 40
6 0 10 -18 10 -40z m-2700 -200 c0 -142 -2 -160 -16 -160 -15 0 -16 9 -10 61
3 34 6 106 6 160 0 59 4 99 10 99 6 0 10 -60 10 -160z m40 80 c0 -47 -4 -80
-10 -80 -6 0 -10 33 -10 80 0 47 4 80 10 80 6 0 10 -33 10 -80z m3337 18 c-2
-13 -4 -3 -4 22 0 25 2 35 4 23 2 -13 2 -33 0 -45z m693 58 c0 -2 -7 -9 -15
-16 -12 -10 -15 -10 -15 4 0 9 7 16 15 16 8 0 15 -2 15 -4z m142 -31 c-2 -19
-6 -35 -8 -35 -2 0 -4 16 -4 35 0 19 4 35 8 35 4 0 6 -16 4 -35z m48 19 c0 -8
-4 -12 -10 -9 -5 3 -10 10 -10 16 0 5 5 9 10 9 6 0 10 -7 10 -16z m347 -46
c-2 -13 -4 -3 -4 22 0 25 2 35 4 23 2 -13 2 -33 0 -45z m-3307 -98 c0 -47 -4
-80 -10 -80 -6 0 -10 33 -10 80 0 47 4 80 10 80 6 0 10 -33 10 -80z m-1340
-119 c0 -73 4 -121 10 -123 6 -2 12 -52 14 -118 2 -63 1 -80 -1 -37 l-4 77
-29 0 -30 0 0 -80 c0 -73 -2 -80 -20 -80 -19 0 -20 7 -20 160 l0 160 30 0 30
0 0 80 c0 47 4 80 10 80 6 0 10 -46 10 -119z m1447 72 c-3 -10 -5 -2 -5 17 0
19 2 27 5 18 2 -10 2 -26 0 -35z m59 25 c-3 -13 -6 -27 -6 -33 0 -5 -5 -3 -10
5 -15 23 -12 50 6 50 12 0 15 -6 10 -22z m26 -13 c-2 -19 -6 -35 -8 -35 -2 0
-4 16 -4 35 0 19 4 35 8 35 4 0 6 -16 4 -35z m48 19 c0 -8 -4 -12 -10 -9 -5 3
-10 10 -10 16 0 5 5 9 10 9 6 0 10 -7 10 -16z m-1503 -126 c-2 -13 -4 -3 -4
22 0 25 2 35 4 23 2 -13 2 -33 0 -45z m1130 -60 c-2 -24 -4 -5 -4 42 0 47 2
66 4 43 2 -24 2 -62 0 -85z m50 0 c-2 -24 -4 -5 -4 42 0 47 2 66 4 43 2 -24 2
-62 0 -85z m240 60 c-2 -13 -4 -3 -4 22 0 25 2 35 4 23 2 -13 2 -33 0 -45z
m30 0 c-2 -13 -4 -3 -4 22 0 25 2 35 4 23 2 -13 2 -33 0 -45z m1280 30 c-3 -7
-5 -2 -5 12 0 14 2 19 5 13 2 -7 2 -19 0 -25z m2480 -30 c-2 -13 -4 -3 -4 22
0 25 2 35 4 23 2 -13 2 -33 0 -45z m53 22 c0 -22 -4 -40 -10 -40 -5 0 -10 18
-10 40 0 22 5 40 10 40 6 0 10 -18 10 -40z m-202 -225 c0 -49 -4 -101 -8 -115
-5 -15 -8 44 -8 140 1 116 3 150 8 115 5 -27 8 -90 8 -140z m39 123 c-2 -13
-4 -3 -4 22 0 25 2 35 4 23 2 -13 2 -33 0 -45z m-4080 -80 c-2 -13 -4 -3 -4
22 0 25 2 35 4 23 2 -13 2 -33 0 -45z m3870 0 c-2 -13 -4 -3 -4 22 0 25 2 35
4 23 2 -13 2 -33 0 -45z m53 22 c0 -22 -4 -40 -10 -40 -5 0 -10 18 -10 40 0
22 5 40 10 40 6 0 10 -18 10 -40z m200 0 c0 -22 -4 -40 -10 -40 -5 0 -10 18
-10 40 0 22 5 40 10 40 6 0 10 -18 10 -40z m-5142 -202 c-1 -122 -3 -144 -7
-87 -6 78 -3 249 5 249 2 0 3 -73 2 -162z m1129 100 c-2 -13 -4 -3 -4 22 0 25
2 35 4 23 2 -13 2 -33 0 -45z m4813 22 c0 -22 -4 -40 -10 -40 -5 0 -10 18 -10
40 0 22 5 40 10 40 6 0 10 -18 10 -40z m-6220 -80 c0 -22 -4 -40 -10 -40 -5 0
-10 18 -10 40 0 22 5 40 10 40 6 0 10 -18 10 -40z m307 -22 c-2 -13 -4 -3 -4
22 0 25 2 35 4 23 2 -13 2 -33 0 -45z m590 0 c-2 -13 -4 -3 -4 22 0 25 2 35 4
23 2 -13 2 -33 0 -45z m613 47 c0 -8 -4 -15 -10 -15 -5 0 -10 7 -10 15 0 8 5
15 10 15 6 0 10 -7 10 -15z m3870 -11 c0 -14 -4 -23 -10 -19 -5 3 -10 15 -10
26 0 10 5 19 10 19 6 0 10 -12 10 -26z m-5423 -116 c-2 -13 -4 -3 -4 22 0 25
2 35 4 23 2 -13 2 -33 0 -45z m5290 -60 c-2 -24 -4 -5 -4 42 0 47 2 66 4 43 2
-24 2 -62 0 -85z m53 82 c0 -22 -4 -40 -10 -40 -5 0 -10 18 -10 40 0 22 5 40
10 40 6 0 10 -18 10 -40z m827 8 c-3 -7 -5 -2 -5 12 0 14 2 19 5 13 2 -7 2
-19 0 -25z m53 10 c0 -19 -2 -20 -10 -8 -13 19 -13 30 0 30 6 0 10 -10 10 -22z
m-6020 -98 c0 -22 -4 -40 -10 -40 -5 0 -10 4 -10 9 0 5 -3 23 -6 40 -5 24 -3
31 10 31 12 0 16 -10 16 -40z m37 8 c-3 -7 -5 -2 -5 12 0 14 2 19 5 13 2 -7 2
-19 0 -25z m940 -30 c-2 -13 -4 -3 -4 22 0 25 2 35 4 23 2 -13 2 -33 0 -45z
m-1017 -98 c0 -73 -2 -80 -20 -80 -18 0 -20 7 -20 80 0 73 2 80 20 80 18 0 20
-7 20 -80z m6000 60 c0 -17 -7 -20 -40 -20 -33 0 -40 3 -40 20 0 17 7 20 40
20 33 0 40 -3 40 -20z m-5280 -150 c0 -5 -18 -10 -40 -10 -22 0 -40 5 -40 10
0 6 18 10 40 10 22 0 40 -4 40 -10z m247 -52 c-2 -13 -4 -3 -4 22 0 25 2 35 4
23 2 -13 2 -33 0 -45z m-497 -178 c0 -47 -4 -80 -10 -80 -6 0 -10 33 -10 80 0
47 4 80 10 80 6 0 10 -33 10 -80z m40 76 c0 -2 -7 -9 -15 -16 -12 -10 -15 -10
-15 4 0 9 7 16 15 16 8 0 15 -2 15 -4z m137 -28 c-3 -7 -5 -2 -5 12 0 14 2 19
5 13 2 -7 2 -19 0 -25z m320 0 c-3 -7 -5 -2 -5 12 0 14 2 19 5 13 2 -7 2 -19
0 -25z m-480 -190 c-2 -13 -4 -3 -4 22 0 25 2 35 4 23 2 -13 2 -33 0 -45z m80
30 c-3 -7 -5 -2 -5 12 0 14 2 19 5 13 2 -7 2 -19 0 -25z m5133 22 c0 -5 -4
-10 -10 -10 -5 0 -10 -7 -10 -16 0 -20 -24 -44 -44 -44 -9 0 -16 -4 -16 -10 0
-5 -4 -10 -10 -10 -5 0 -10 23 -10 50 l0 50 50 0 c28 0 50 -4 50 -10z m-5620
-110 c0 -22 -4 -40 -10 -40 -5 0 -10 -10 -11 -22 l0 -23 -11 23 c-6 12 -17 22
-24 22 -7 0 -15 -10 -17 -22 -2 -13 -5 5 -6 40 l-1 62 40 0 40 0 0 -40z m190
36 c0 -2 -7 -9 -15 -16 -12 -10 -15 -10 -15 4 0 9 7 16 15 16 8 0 15 -2 15 -4z
m80 0 c0 -2 -7 -9 -15 -16 -12 -10 -15 -10 -15 4 0 9 7 16 15 16 8 0 15 -2 15
-4z m-23 -168 c-2 -18 -4 -4 -4 32 0 36 2 50 4 33 2 -18 2 -48 0 -65z m80 30
c-3 -8 -6 -5 -6 6 -1 11 2 17 5 13 3 -3 4 -12 1 -19z m-160 -50 c-3 -7 -5 -2
-5 12 0 14 2 19 5 13 2 -7 2 -19 0 -25z m160 0 c-3 -7 -5 -2 -5 12 0 14 2 19
5 13 2 -7 2 -19 0 -25z m-160 -110 c-2 -13 -4 -3 -4 22 0 25 2 35 4 23 2 -13
2 -33 0 -45z m5280 -550 c-3 -7 -5 -2 -5 12 0 14 2 19 5 13 2 -7 2 -19 0 -25z
m-720 -3220 c-3 -7 -5 -2 -5 12 0 14 2 19 5 13 2 -7 2 -19 0 -25z m49 -5 c-11
-11 -17 4 -9 23 7 18 8 18 11 1 2 -10 1 -21 -2 -24z m-49 -225 c-2 -13 -4 -3
-4 22 0 25 2 35 4 23 2 -13 2 -33 0 -45z m-910 -5440 c-2 -13 -4 -3 -4 22 0
25 2 35 4 23 2 -13 2 -33 0 -45z m-157 -2138 c0 -22 -4 -40 -10 -40 -5 0 -10
18 -10 40 0 22 5 40 10 40 6 0 10 -18 10 -40z m-70 -560 c0 -29 -4 -40 -15
-40 -11 0 -15 11 -15 40 0 29 4 40 15 40 11 0 15 -11 15 -40z m-143 -4952 c-3
-7 -5 -2 -5 12 0 14 2 19 5 13 2 -7 2 -19 0 -25z m53 10 c0 -19 -2 -20 -10 -8
-13 19 -13 30 0 30 6 0 10 -10 10 -22z m427 -1570 c-2 -29 -3 -6 -3 52 0 58 1
81 3 53 2 -29 2 -77 0 -105z m53 112 c0 -22 -4 -40 -10 -40 -5 0 -10 18 -10
40 0 22 5 40 10 40 6 0 10 -18 10 -40z m3 -233 c-3 -92 -8 -165 -10 -163 -11
10 -14 256 -4 256 6 0 11 5 11 10 0 6 -9 10 -20 10 -11 0 -20 2 -20 5 0 6 44
53 47 51 1 -1 -1 -77 -4 -169z m-51 -34 c-4 -138 -9 -148 -11 -25 0 61 2 112
7 112 4 0 6 -39 4 -87z m-32 45 c0 -19 -2 -20 -10 -8 -13 19 -13 30 0 30 6 0
10 -10 10 -22z m27 -250 c-3 -7 -5 -2 -5 12 0 14 2 19 5 13 2 -7 2 -19 0 -25z
m130 -30 c-2 -13 -4 -3 -4 22 0 25 2 35 4 23 2 -13 2 -33 0 -45z m246 -617
c-6 -25 -6 -25 -14 -3 -5 12 -6 37 -2 55 l7 32 7 -30 c5 -16 6 -40 2 -54z
m157 -97 c0 -8 -4 -12 -10 -9 -5 3 -10 10 -10 16 0 5 5 9 10 9 6 0 10 -7 10
-16z m-53 -86 c-2 -13 -4 -3 -4 22 0 25 2 35 4 23 2 -13 2 -33 0 -45z m210
-690 c-3 -7 -5 -2 -5 12 0 14 2 19 5 13 2 -7 2 -19 0 -25z m246 -160 c-8 -42
-11 -46 -19 -22 -15 47 -17 48 -24 16 -11 -49 -20 -51 -20 -4 0 41 1 42 35 42
34 0 34 -1 28 -32z m24 -80 c-3 -7 -5 -2 -5 12 0 14 2 19 5 13 2 -7 2 -19 0
-25z m53 10 c0 -19 -2 -20 -10 -8 -13 19 -13 30 0 30 6 0 10 -10 10 -22z m34
-234 c-4 -77 -14 -81 -14 -6 0 34 4 62 8 62 5 0 7 -25 6 -56z m55 14 c-1 -77
-24 -103 -29 -33 -4 56 0 75 15 75 11 0 15 -11 14 -42z m18 -270 c-3 -7 -5 -2
-5 12 0 14 2 19 5 13 2 -7 2 -19 0 -25z m53 22 c0 -5 -4 -10 -10 -10 -5 0 -10
5 -10 10 0 6 5 10 10 10 6 0 10 -4 10 -10z m347 -702 c-2 -29 -3 -6 -3 52 0
58 1 81 3 53 2 -29 2 -77 0 -105z m62 120 c-1 -45 -16 -138 -18 -112 0 12 -4
49 -7 83 -6 52 -5 61 10 61 12 0 16 -9 15 -32z m68 -270 c-2 -13 -4 -3 -4 22
0 25 2 35 4 23 2 -13 2 -33 0 -45z m80 -50 c-3 -7 -5 -2 -5 12 0 14 2 19 5 13
2 -7 2 -19 0 -25z m323 -154 c0 -14 -4 -23 -10 -19 -5 3 -10 15 -10 26 0 10 5
19 10 19 6 0 10 -12 10 -26z m-45 -221 c-8 -73 -15 -95 -15 -45 0 16 -6 33
-12 36 -10 5 -10 7 0 12 6 3 12 19 12 35 0 16 5 29 11 29 7 0 8 -22 4 -67z
m-88 -105 c-3 -7 -5 -2 -5 12 0 14 2 19 5 13 2 -7 2 -19 0 -25z m53 10 c0 -19
-2 -20 -10 -8 -13 19 -13 30 0 30 6 0 10 -10 10 -22z m160 -74 c0 -8 -4 -12
-10 -9 -5 3 -10 10 -10 16 0 5 5 9 10 9 6 0 10 -7 10 -16z m237 -206 c-2 -13
-4 -3 -4 22 0 25 2 35 4 23 2 -13 2 -33 0 -45z m8 -175 c-3 -24 -10 -43 -16
-43 -14 0 -11 148 4 164 10 11 13 5 15 -33 2 -25 1 -65 -3 -88z m-58 -20 c-2
-16 -4 -3 -4 27 0 30 2 43 4 28 2 -16 2 -40 0 -55z m593 -693 c0 -5 -4 -10
-10 -10 -5 0 -10 5 -10 10 0 6 5 10 10 10 6 0 10 -4 10 -10z m292 -205 c-2
-19 -6 -35 -8 -35 -2 0 -4 16 -4 35 0 19 4 35 8 35 4 0 6 -16 4 -35z m48 19
c0 -8 -4 -12 -10 -9 -5 3 -10 10 -10 16 0 5 5 9 10 9 6 0 10 -7 10 -16z m-53
-256 c-3 -7 -5 -2 -5 12 0 14 2 19 5 13 2 -7 2 -19 0 -25z m53 10 c0 -19 -2
-20 -10 -8 -13 19 -13 30 0 30 6 0 10 -10 10 -22z m40 12 c0 -5 -4 -10 -10
-10 -5 0 -10 5 -10 10 0 6 5 10 10 10 6 0 10 -4 10 -10z m440 -572 c0 -19 -2
-20 -10 -8 -13 19 -13 30 0 30 6 0 10 -10 10 -22z m397 -200 c-2 -13 -4 -3 -4
22 0 25 2 35 4 23 2 -13 2 -33 0 -45z m-50 -80 c-2 -13 -4 -3 -4 22 0 25 2 35
4 23 2 -13 2 -33 0 -45z m34 -57 c-18 -23 -27 -41 -20 -43 7 -2 5 -9 -5 -17
-14 -12 -16 -9 -16 33 0 25 5 46 10 46 6 0 10 7 10 15 0 9 10 26 23 39 l22 23
3 -29 c2 -20 -6 -40 -27 -67z m-61 -57 c0 -8 -4 -12 -10 -9 -5 3 -10 10 -10
16 0 5 5 9 10 9 6 0 10 -7 10 -16z m-53 -41 c-3 -10 -5 -4 -5 12 0 17 2 24 5
18 2 -7 2 -21 0 -30z m800 -405 c-2 -13 -4 -3 -4 22 0 25 2 35 4 23 2 -13 2
-33 0 -45z m-155 -53 c-2 -19 -6 -35 -8 -35 -2 0 -4 16 -4 35 0 19 4 35 8 35
4 0 6 -16 4 -35z m48 19 c0 -8 -4 -12 -10 -9 -5 3 -10 10 -10 16 0 5 5 9 10 9
6 0 10 -7 10 -16z m80 0 c0 -8 -4 -12 -10 -9 -5 3 -10 10 -10 16 0 5 5 9 10 9
6 0 10 -7 10 -16z m560 -326 c0 -19 -2 -20 -10 -8 -13 19 -13 30 0 30 6 0 10
-10 10 -22z m107 -425 c-3 -10 -5 -2 -5 17 0 19 2 27 5 18 2 -10 2 -26 0 -35z
m80 -80 c-3 -10 -5 -2 -5 17 0 19 2 27 5 18 2 -10 2 -26 0 -35z m59 25 c-3
-13 -6 -27 -6 -33 0 -5 -5 -3 -10 5 -15 23 -12 50 6 50 12 0 15 -6 10 -22z
m311 -440 c-2 -13 -4 -3 -4 22 0 25 2 35 4 23 2 -13 2 -33 0 -45z m190 -465
c-3 -10 -5 -2 -5 17 0 19 2 27 5 18 2 -10 2 -26 0 -35z m59 25 c-3 -13 -6 -27
-6 -33 0 -5 -5 -3 -10 5 -15 23 -12 50 6 50 12 0 15 -6 10 -22z m-139 -90 c-3
-7 -5 -2 -5 12 0 14 2 19 5 13 2 -7 2 -19 0 -25z m53 12 c0 -11 -4 -20 -10
-20 -5 0 -10 9 -10 20 0 11 5 20 10 20 6 0 10 -9 10 -20z m246 -242 c-3 -13
-6 -27 -6 -33 0 -5 -5 -3 -10 5 -15 23 -12 50 6 50 12 0 15 -6 10 -22z m54
-18 c0 -33 -3 -40 -20 -40 -17 0 -20 7 -20 40 0 33 3 40 20 40 17 0 20 -7 20
-40z m612 -875 c-2 -19 -6 -35 -8 -35 -2 0 -4 16 -4 35 0 19 4 35 8 35 4 0 6
-16 4 -35z m48 19 c0 -8 -4 -12 -10 -9 -5 3 -10 10 -10 16 0 5 5 9 10 9 6 0
10 -7 10 -16z m220 -374 c0 -5 7 -10 15 -10 11 0 15 -11 15 -40 0 -29 -4 -40
-15 -40 -11 0 -15 11 -15 40 0 22 -4 40 -10 40 -5 0 -10 5 -10 10 0 6 5 10 10
10 6 0 10 -4 10 -10z m287 -442 c-3 -7 -5 -2 -5 12 0 14 2 19 5 13 2 -7 2 -19
0 -25z m53 -8 c0 -22 -4 -40 -10 -40 -5 0 -10 18 -10 40 0 22 5 40 10 40 6 0
10 -18 10 -40z m27 -22 c-2 -13 -4 -3 -4 22 0 25 2 35 4 23 2 -13 2 -33 0 -45z
m55 11 c6 -61 0 -98 -13 -77 -11 17 -11 128 0 128 5 0 11 -23 13 -51z m-55
-81 c-3 -7 -5 -2 -5 12 0 14 2 19 5 13 2 -7 2 -19 0 -25z m160 -220 c-3 -7 -5
-2 -5 12 0 14 2 19 5 13 2 -7 2 -19 0 -25z m140 -54 c-3 -3 -12 -4 -19 -1 -8
3 -5 6 6 6 11 1 17 -2 13 -5z m313 -330 c0 -8 -4 -12 -10 -9 -5 3 -10 10 -10
16 0 5 5 9 10 9 6 0 10 -7 10 -16z m81 -71 c-12 -20 -14 -14 -5 12 4 9 9 14
11 11 3 -2 0 -13 -6 -23z m-241 -9 c0 -8 -4 -12 -10 -9 -5 3 -10 10 -10 16 0
5 5 9 10 9 6 0 10 -7 10 -16z m200 6 c0 -5 -6 -10 -14 -10 -7 0 -16 -13 -19
-30 -8 -39 -23 -38 -32 3 l-7 32 -13 -35 -13 -35 -1 43 -1 42 50 0 c28 0 50
-4 50 -10z m67 -22 c-3 -7 -5 -2 -5 12 0 14 2 19 5 13 2 -7 2 -19 0 -25z m53
10 c0 -19 -2 -20 -10 -8 -13 19 -13 30 0 30 6 0 10 -10 10 -22z m-373 -35 c-3
-10 -5 -4 -5 12 0 17 2 24 5 18 2 -7 2 -21 0 -30z m80 -55 c-3 -7 -5 -2 -5 12
0 14 2 19 5 13 2 -7 2 -19 0 -25z m53 10 c0 -19 -2 -20 -10 -8 -13 19 -13 30
0 30 6 0 10 -10 10 -22z m907 -1210 c-3 -7 -5 -2 -5 12 0 14 2 19 5 13 2 -7 2
-19 0 -25z m50 0 c-3 -7 -5 -2 -5 12 0 14 2 19 5 13 2 -7 2 -19 0 -25z m510
-400 c-3 -7 -5 -2 -5 12 0 14 2 19 5 13 2 -7 2 -19 0 -25z m533 -314 c0 -14
-4 -23 -10 -19 -5 3 -10 15 -10 26 0 10 5 19 10 19 6 0 10 -12 10 -26z m27
-86 c-3 -7 -5 -2 -5 12 0 14 2 19 5 13 2 -7 2 -19 0 -25z m53 10 c0 -19 -2
-20 -10 -8 -13 19 -13 30 0 30 6 0 10 -10 10 -22z m64 7 c-4 -9 -15 -20 -25
-26 -16 -8 -19 -6 -19 16 0 20 5 25 25 25 18 0 23 -4 19 -15z m-117 -97 c-3
-7 -5 -2 -5 12 0 14 2 19 5 13 2 -7 2 -19 0 -25z m412 -225 c-1 -10 -5 -29 -9
-43 -7 -21 -8 -19 -9 18 -1 23 4 42 9 42 6 0 10 -8 9 -17z m41 -9 c0 -14 -4
-23 -10 -19 -5 3 -10 15 -10 26 0 10 5 19 10 19 6 0 10 -12 10 -26z m347 -326
c-3 -7 -5 -2 -5 12 0 14 2 19 5 13 2 -7 2 -19 0 -25z m-141 -2 c19 -20 18 -26
-6 -26 -13 0 -20 7 -20 20 0 24 6 25 26 6z m461 -493 c-3 -10 -5 -2 -5 17 0
19 2 27 5 18 2 -10 2 -26 0 -35z m59 25 c-3 -13 -6 -27 -6 -33 0 -5 -5 -3 -10
5 -15 23 -12 50 6 50 12 0 15 -6 10 -22z m661 -520 c-2 -13 -4 -3 -4 22 0 25
2 35 4 23 2 -13 2 -33 0 -45z"/>
<path d="M9440 47880 c0 -73 4 -120 10 -120 6 0 10 47 10 120 0 73 -4 120 -10
120 -6 0 -10 -47 -10 -120z"/>
<path d="M9360 47504 c0 -14 3 -14 15 -4 8 7 15 14 15 16 0 2 -7 4 -15 4 -8 0
-15 -7 -15 -16z"/>
<path d="M9604 46750 c0 -74 1 -105 3 -67 2 37 2 97 0 135 -2 37 -3 6 -3 -68z"/>
<path d="M9653 46840 c0 -25 2 -35 4 -22 2 12 2 32 0 45 -2 12 -4 2 -4 -23z"/>
<path d="M9560 46781 c0 -11 5 -23 10 -26 6 -4 10 5 10 19 0 14 -4 26 -10 26
-5 0 -10 -9 -10 -19z"/>
<path d="M9567 46663 c-3 -32 -2 -62 3 -67 7 -7 10 15 10 57 0 37 -2 67 -4 67
-2 0 -6 -26 -9 -57z"/>
<path d="M9122 44723 c-2 -157 -1 -163 18 -163 17 0 20 7 20 40 0 29 -4 40
-15 40 -12 0 -15 23 -18 123 -2 115 -3 113 -5 -40z"/>
<path d="M9360 44860 c0 -11 5 -20 10 -20 6 0 10 9 10 20 0 11 -4 20 -10 20
-5 0 -10 -9 -10 -20z"/>
<path d="M9200 44760 c0 -22 5 -40 10 -40 6 0 10 18 10 40 0 22 -4 40 -10 40
-5 0 -10 -18 -10 -40z"/>
<path d="M9240 44760 c0 -22 5 -40 10 -40 6 0 10 18 10 40 0 22 -4 40 -10 40
-5 0 -10 -18 -10 -40z"/>
<path d="M9282 44683 c-2 -99 1 -123 12 -123 10 0 16 22 21 80 5 58 11 80 21
80 10 0 14 12 14 40 0 29 -4 40 -15 40 -11 0 -15 -11 -15 -40 0 -57 -27 -55
-33 3 -2 23 -4 -13 -5 -80z"/>
<path d="M9363 44760 c0 -25 2 -35 4 -22 2 12 2 32 0 45 -2 12 -4 2 -4 -23z"/>
<path d="M9000 44621 c0 -11 5 -23 10 -26 6 -4 10 5 10 19 0 14 -4 26 -10 26
-5 0 -10 -9 -10 -19z"/>
<path d="M9363 44360 c0 -25 2 -35 4 -22 2 12 2 32 0 45 -2 12 -4 2 -4 -23z"/>
<path d="M9283 44200 c0 -25 2 -35 4 -22 2 12 2 32 0 45 -2 12 -4 2 -4 -23z"/>
<path d="M9204 43920 c0 -91 2 -128 3 -82 2 45 2 119 0 165 -1 45 -3 8 -3 -83z"/>
<path d="M9283 44040 c0 -25 2 -35 4 -22 2 12 2 32 0 45 -2 12 -4 2 -4 -23z"/>
<path d="M9040 43880 c0 -33 3 -40 20 -40 17 0 20 7 20 40 0 33 -3 40 -20 40
-17 0 -20 -7 -20 -40z"/>
<path d="M9123 43840 c0 -47 2 -66 4 -42 2 23 2 61 0 85 -2 23 -4 4 -4 -43z"/>
<path d="M9123 43640 c0 -25 2 -35 4 -22 2 12 2 32 0 45 -2 12 -4 2 -4 -23z"/>
<path d="M9044 43380 c0 -80 2 -112 3 -72 2 39 2 105 0 145 -1 39 -3 7 -3 -73z"/>
<path d="M9013 43320 c0 -25 2 -35 4 -22 2 12 2 32 0 45 -2 12 -4 2 -4 -23z"/>
<path d="M8960 43260 c0 -11 5 -20 10 -20 6 0 10 9 10 20 0 11 -4 20 -10 20
-5 0 -10 -9 -10 -20z"/>
<path d="M9092 43260 c0 -14 2 -19 5 -12 2 6 2 18 0 25 -3 6 -5 1 -5 -13z"/>
<path d="M9040 43160 c0 -22 5 -40 10 -40 6 0 10 18 10 40 0 22 -4 40 -10 40
-5 0 -10 -18 -10 -40z"/>
<path d="M8960 42950 c0 -5 18 -10 40 -10 22 0 40 5 40 10 0 6 -18 10 -40 10
-22 0 -40 -4 -40 -10z"/>
<path d="M8880 42800 c0 -47 4 -80 10 -80 6 0 10 33 10 80 0 47 -4 80 -10 80
-6 0 -10 -33 -10 -80z"/>
<path d="M8920 42840 c0 -22 5 -40 10 -40 6 0 10 18 10 40 0 22 -4 40 -10 40
-5 0 -10 -18 -10 -40z"/>
<path d="M8640 41975 c0 -22 3 -24 19 -16 31 17 34 41 6 41 -20 0 -25 -5 -25
-25z"/>
<path d="M8640 41904 c0 -14 3 -14 15 -4 8 7 15 14 15 16 0 2 -7 4 -15 4 -8 0
-15 -7 -15 -16z"/>
<path d="M8560 41815 c0 -22 3 -24 19 -16 31 17 34 41 6 41 -20 0 -25 -5 -25
-25z"/>
<path d="M8560 41655 c0 -22 3 -24 19 -16 31 17 34 41 6 41 -20 0 -25 -5 -25
-25z"/>
<path d="M8723 40840 c0 -25 2 -35 4 -22 2 12 2 32 0 45 -2 12 -4 2 -4 -23z"/>
<path d="M8480 40784 c0 -14 3 -14 15 -4 8 7 15 14 15 16 0 2 -7 4 -15 4 -8 0
-15 -7 -15 -16z"/>
<path d="M8400 40520 c0 -22 5 -40 10 -40 6 0 10 18 10 40 0 22 -4 40 -10 40
-5 0 -10 -18 -10 -40z"/>
<path d="M8320 40360 l0 -40 -40 0 -40 0 0 -40 0 -40 40 0 40 0 0 -40 c0 -22
5 -40 10 -40 6 0 10 18 10 40 0 22 5 40 10 40 6 0 10 33 10 80 0 73 -2 80 -20
80 -17 0 -20 -7 -20 -40z"/>
<path d="M8293 39400 c0 -25 2 -35 4 -22 2 12 2 32 0 45 -2 12 -4 2 -4 -23z"/>
<path d="M8164 39240 c0 -69 1 -97 3 -62 2 34 2 90 0 125 -2 34 -3 6 -3 -63z"/>
<path d="M8214 39240 c0 -69 1 -97 3 -62 2 34 2 90 0 125 -2 34 -3 6 -3 -63z"/>
<path d="M8133 39080 c0 -25 2 -35 4 -22 2 12 2 32 0 45 -2 12 -4 2 -4 -23z"/>
<path d="M8083 38800 c0 -47 2 -66 4 -42 2 23 2 61 0 85 -2 23 -4 4 -4 -43z"/>
<path d="M8083 38600 c0 -25 2 -35 4 -22 2 12 2 32 0 45 -2 12 -4 2 -4 -23z"/>
<path d="M8003 38500 c0 -36 2 -50 4 -32 2 17 2 47 0 65 -2 17 -4 3 -4 -33z"/>
<path d="M8080 37840 c0 -47 4 -80 10 -80 6 0 10 33 10 80 0 47 -4 80 -10 80
-6 0 -10 -33 -10 -80z"/>
<path d="M11753 37880 c0 -25 2 -35 4 -22 2 12 2 32 0 45 -2 12 -4 2 -4 -23z"/>
<path d="M11782 37820 l1 -65 7 50 c4 28 3 57 -1 65 -5 9 -8 -11 -7 -50z"/>
<path d="M11832 37860 c0 -14 2 -19 5 -12 2 6 2 18 0 25 -3 6 -5 1 -5 -13z"/>
<path d="M11730 37790 l-25 -25 23 -3 c13 -2 26 -1 29 1 2 3 3 16 1 29 l-3 23
-25 -25z"/>
<path d="M11820 37720 c0 -22 5 -40 10 -40 6 0 10 18 10 40 0 22 -4 40 -10 40
-5 0 -10 -18 -10 -40z"/>
<path d="M12393 37720 c0 -25 2 -35 4 -22 2 12 2 32 0 45 -2 12 -4 2 -4 -23z"/>
<path d="M11593 37640 c0 -25 2 -35 4 -22 2 12 2 32 0 45 -2 12 -4 2 -4 -23z"/>
<path d="M12153 37640 c0 -25 2 -35 4 -22 2 12 2 32 0 45 -2 12 -4 2 -4 -23z"/>
<path d="M12560 37635 c0 -11 -11 -15 -40 -15 -22 0 -40 -4 -40 -10 0 -6 28
-10 65 -10 61 0 65 1 56 19 -14 24 -41 35 -41 16z"/>
<path d="M11303 37560 c0 -25 2 -35 4 -22 2 12 2 32 0 45 -2 12 -4 2 -4 -23z"/>
<path d="M11800 37560 c0 -33 3 -40 20 -40 17 0 20 7 20 40 0 33 -3 40 -20 40
-17 0 -20 -7 -20 -40z"/>
<path d="M12103 37560 c0 -25 2 -35 4 -22 2 12 2 32 0 45 -2 12 -4 2 -4 -23z"/>
<path d="M11511 37574 c0 -11 3 -14 6 -6 3 7 2 16 -1 19 -3 4 -6 -2 -5 -13z"/>
<path d="M11380 37463 c0 -13 5 -23 10 -23 13 0 13 11 0 30 -8 12 -10 11 -10
-7z"/>
<path d="M11432 37460 c0 -14 2 -19 5 -12 2 6 2 18 0 25 -3 6 -5 1 -5 -13z"/>
<path d="M11193 37445 c-15 -17 -17 -85 -3 -85 6 0 10 18 10 40 l0 40 40 0
c22 0 40 5 40 10 0 15 -73 11 -87 -5z"/>
<path d="M10503 37400 c0 -25 2 -35 4 -22 2 12 2 32 0 45 -2 12 -4 2 -4 -23z"/>
<path d="M11346 37409 c-9 -49 -7 -129 4 -129 6 0 10 33 10 80 0 44 -2 80 -4
80 -2 0 -6 -14 -10 -31z"/>
<path d="M12100 37400 c0 -22 5 -40 10 -40 6 0 10 18 10 40 0 22 -4 40 -10 40
-5 0 -10 -18 -10 -40z"/>
<path d="M12153 37400 c0 -25 2 -35 4 -22 2 12 2 32 0 45 -2 12 -4 2 -4 -23z"/>
<path d="M12540 37360 c0 -47 -4 -80 -10 -80 -5 0 -10 -18 -10 -40 0 -33 3
-40 20 -40 19 0 20 7 20 120 0 73 -4 120 -10 120 -6 0 -10 -33 -10 -80z"/>
<path d="M11300 37386 c0 -14 5 -26 10 -26 6 0 10 9 10 19 0 11 -4 23 -10 26
-6 4 -10 -5 -10 -19z"/>
<path d="M11221 37278 c2 -78 2 -80 9 -33 12 72 11 115 0 115 -6 0 -9 -33 -9
-82z"/>
<path d="M11272 37274 c-1 -50 -5 -106 -8 -123 -4 -20 -3 -31 5 -31 6 0 11 17
11 40 l0 40 40 0 c33 0 40 3 40 20 0 17 -7 20 -40 20 l-39 0 -4 63 c-3 51 -3
46 -5 -29z"/>
<path d="M11383 37320 c0 -25 2 -35 4 -22 2 12 2 32 0 45 -2 12 -4 2 -4 -23z"/>
<path d="M11433 37320 c0 -25 2 -35 4 -22 2 12 2 32 0 45 -2 12 -4 2 -4 -23z"/>
<path d="M11500 37320 c0 -22 5 -40 10 -40 6 0 10 18 10 40 0 22 -4 40 -10 40
-5 0 -10 -18 -10 -40z"/>
<path d="M8163 37240 c0 -25 2 -35 4 -22 2 12 2 32 0 45 -2 12 -4 2 -4 -23z"/>
<path d="M12640 37210 c0 -5 18 -10 40 -10 22 0 40 5 40 10 0 6 -18 10 -40 10
-22 0 -40 -4 -40 -10z"/>
<path d="M10140 37160 c0 -22 5 -40 10 -40 6 0 10 18 10 40 0 22 -4 40 -10 40
-5 0 -10 -18 -10 -40z"/>
<path d="M10520 37160 c0 -33 3 -40 20 -40 17 0 20 7 20 40 0 33 -3 40 -20 40
-17 0 -20 -7 -20 -40z"/>
<path d="M10570 37160 c0 -29 4 -40 15 -40 11 0 15 11 15 40 0 29 -4 40 -15
40 -11 0 -15 -11 -15 -40z"/>
<path d="M10633 37160 c0 -25 2 -35 4 -22 2 12 2 32 0 45 -2 12 -4 2 -4 -23z"/>
<path d="M10880 37160 c0 -22 5 -40 10 -40 6 0 10 18 10 40 0 22 -4 40 -10 40
-5 0 -10 -18 -10 -40z"/>
<path d="M11543 37160 c0 -25 2 -35 4 -22 2 12 2 32 0 45 -2 12 -4 2 -4 -23z"/>
<path d="M12060 37160 c0 -22 5 -40 10 -40 6 0 10 18 10 40 0 22 -4 40 -10 40
-5 0 -10 -18 -10 -40z"/>
<path d="M11220 37146 c0 -14 5 -26 10 -26 6 0 10 9 10 19 0 11 -4 23 -10 26
-6 4 -10 -5 -10 -19z"/>
<path d="M9820 37135 c-10 -12 -10 -15 4 -15 9 0 16 7 16 15 0 8 -2 15 -4 15
-2 0 -9 -7 -16 -15z"/>
<path d="M12240 37135 c0 -8 7 -15 16 -15 14 0 14 3 4 15 -7 8 -14 15 -16 15
-2 0 -4 -7 -4 -15z"/>
<path d="M11033 37125 c-15 -17 -17 -85 -3 -85 6 0 10 18 10 40 0 22 5 40 10
40 6 0 10 -12 10 -26 0 -14 4 -23 10 -19 6 3 10 15 10 26 0 34 17 20 27 -23
l11 -43 1 53 1 52 -37 0 c-21 -1 -44 -7 -50 -15z"/>
<path d="M11360 37130 c0 -5 9 -10 20 -10 17 0 20 -7 20 -40 0 -33 3 -40 20
-40 17 0 20 7 20 50 l0 50 -40 0 c-22 0 -40 -4 -40 -10z"/>
<path d="M11143 37080 c0 -25 2 -35 4 -22 2 12 2 32 0 45 -2 12 -4 2 -4 -23z"/>
<path d="M9808 37068 c-20 -20 -21 -23 -5 -26 13 -3 17 -13 17 -43 0 -21 5
-39 10 -39 6 0 10 28 10 65 0 36 -2 65 -5 65 -3 0 -15 -10 -27 -22z"/>
<path d="M11140 36986 c0 -14 5 -26 10 -26 6 0 10 9 10 19 0 11 -4 23 -10 26
-6 4 -10 -5 -10 -19z"/>
<path d="M10900 36983 c0 -13 5 -23 10 -23 13 0 13 11 0 30 -8 12 -10 11 -10
-7z"/>
<path d="M10952 36980 c0 -14 2 -19 5 -12 2 6 2 18 0 25 -3 6 -5 1 -5 -13z"/>
<path d="M9740 36975 c-10 -12 -10 -15 4 -15 9 0 16 7 16 15 0 8 -2 15 -4 15
-2 0 -9 -7 -16 -15z"/>
<path d="M11060 36976 c0 -9 5 -16 10 -16 6 0 10 4 10 9 0 6 -4 13 -10 16 -5
3 -10 -1 -10 -9z"/>
<path d="M10080 36920 c0 -22 5 -40 10 -40 6 0 10 18 10 40 0 22 -4 40 -10 40
-5 0 -10 -18 -10 -40z"/>
<path d="M10977 36918 c-10 -34 -9 -38 8 -38 16 0 20 27 6 48 -6 10 -10 8 -14
-10z"/>
<path d="M11032 36910 c0 -19 2 -27 5 -17 2 9 2 25 0 35 -3 9 -5 1 -5 -18z"/>
<path d="M11060 36906 c0 -14 5 -26 10 -26 6 0 10 9 10 19 0 11 -4 23 -10 26
-6 4 -10 -5 -10 -19z"/>
<path d="M13120 36890 c0 -5 18 -10 40 -10 22 0 40 5 40 10 0 6 -18 10 -40 10
-22 0 -40 -4 -40 -10z"/>
<path d="M9900 36840 c0 -22 5 -40 10 -40 6 0 10 18 10 40 0 22 -4 40 -10 40
-5 0 -10 -18 -10 -40z"/>
<path d="M13090 36830 l-25 -25 23 -3 c13 -2 26 -1 29 1 2 3 3 16 1 29 l-3 23
-25 -25z"/>
<path d="M9640 36760 c0 -33 3 -40 20 -40 17 0 20 7 20 40 0 33 -3 40 -20 40
-17 0 -20 -7 -20 -40z"/>
<path d="M9960 36760 c0 -33 3 -40 20 -40 17 0 20 7 20 40 0 33 -3 40 -20 40
-17 0 -20 -7 -20 -40z"/>
<path d="M9880 36680 c0 -33 3 -40 20 -40 17 0 20 7 20 40 0 33 -3 40 -20 40
-17 0 -20 -7 -20 -40z"/>
<path d="M8982 36660 c0 -14 2 -19 5 -12 2 6 2 18 0 25 -3 6 -5 1 -5 -13z"/>
<path d="M12840 36600 c0 -33 3 -40 20 -40 17 0 20 7 20 40 0 33 -3 40 -20 40
-17 0 -20 -7 -20 -40z"/>
<path d="M9180 36400 c0 -47 4 -80 10 -80 6 0 10 33 10 80 0 47 -4 80 -10 80
-6 0 -10 -33 -10 -80z"/>
<path d="M12760 36440 c0 -33 3 -40 20 -40 17 0 20 7 20 40 0 33 -3 40 -20 40
-17 0 -20 -7 -20 -40z"/>
<path d="M13100 36440 c0 -22 5 -40 10 -40 6 0 10 18 10 40 0 22 -4 40 -10 40
-5 0 -10 -18 -10 -40z"/>
<path d="M8723 36280 c0 -25 2 -35 4 -22 2 12 2 32 0 45 -2 12 -4 2 -4 -23z"/>
<path d="M8750 36280 c0 -22 5 -40 10 -40 6 0 10 18 10 40 0 22 -4 40 -10 40
-5 0 -10 -18 -10 -40z"/>
<path d="M8793 36280 c0 -25 2 -35 4 -22 2 12 2 32 0 45 -2 12 -4 2 -4 -23z"/>
<path d="M13080 36280 c0 -33 3 -40 20 -40 17 0 20 7 20 40 0 33 -3 40 -20 40
-17 0 -20 -7 -20 -40z"/>
<path d="M8860 36200 c0 -22 5 -40 10 -40 6 0 10 18 10 40 0 22 -4 40 -10 40
-5 0 -10 -18 -10 -40z"/>
<path d="M9080 36200 c0 -33 3 -40 20 -40 17 0 20 7 20 40 0 33 -3 40 -20 40
-17 0 -20 -7 -20 -40z"/>
<path d="M13223 36200 c0 -25 2 -35 4 -22 2 12 2 32 0 45 -2 12 -4 2 -4 -23z"/>
<path d="M13303 36200 c0 -25 2 -35 4 -22 2 12 2 32 0 45 -2 12 -4 2 -4 -23z"/>
<path d="M8640 36170 c0 -5 18 -10 40 -10 22 0 40 5 40 10 0 6 -18 10 -40 10
-22 0 -40 -4 -40 -10z"/>
<path d="M13000 36120 c0 -33 3 -40 20 -40 17 0 20 7 20 40 0 33 -3 40 -20 40
-17 0 -20 -7 -20 -40z"/>
<path d="M12920 36040 c0 -22 5 -40 10 -40 6 0 10 -47 10 -120 0 -73 4 -120
10 -120 6 0 10 60 10 160 0 153 -1 160 -20 160 -17 0 -20 -7 -20 -40z"/>
<path d="M12900 35840 c0 -47 4 -80 10 -80 6 0 10 33 10 80 0 47 -4 80 -10 80
-6 0 -10 -33 -10 -80z"/>
<path d="M7718 35550 c-7 -24 -3 -38 8 -28 3 4 4 17 2 30 l-3 23 -7 -25z"/>
<path d="M7752 35545 c0 -16 2 -22 5 -12 2 9 2 23 0 30 -3 6 -5 -1 -5 -18z"/>
<path d="M7600 35320 l0 -40 40 0 40 0 0 40 0 40 -40 0 -40 0 0 -40z"/>
<path d="M13371 35188 c0 -7 4 -22 9 -33 l9 -20 0 20 c1 17 3 17 11 5 8 -12
10 -12 11 5 l0 20 9 -20 c13 -31 12 -45 -5 -45 -11 0 -15 -11 -15 -40 0 -33 3
-40 20 -40 18 0 20 7 20 80 l0 80 -35 0 c-22 0 -35 -5 -34 -12z"/>
<path d="M13460 35160 c0 -22 5 -40 10 -40 6 0 10 18 10 40 0 22 -4 40 -10 40
-5 0 -10 -18 -10 -40z"/>
<path d="M13513 35160 c0 -25 2 -35 4 -22 2 12 2 32 0 45 -2 12 -4 2 -4 -23z"/>
<path d="M13080 33770 c0 -5 9 -10 20 -10 11 0 20 5 20 10 0 6 -9 10 -20 10
-11 0 -20 -4 -20 -10z"/>
<path d="M11640 27440 c0 -233 1 -240 20 -240 19 0 20 7 20 120 0 113 1 120
20 120 17 0 20 7 20 40 0 33 -3 40 -20 40 -18 0 -20 7 -20 80 0 73 -2 80 -20
80 -19 0 -20 -7 -20 -240z"/>
<path d="M11360 25200 c0 -47 4 -80 10 -80 6 0 10 33 10 80 0 47 -4 80 -10 80
-6 0 -10 -33 -10 -80z"/>
<path d="M11050 17400 c0 -29 4 -40 15 -40 11 0 15 11 15 40 0 29 -4 40 -15
40 -11 0 -15 -11 -15 -40z"/>
<path d="M11113 17400 c0 -25 2 -35 4 -22 2 12 2 32 0 45 -2 12 -4 2 -4 -23z"/>
<path d="M11210 16600 c0 -29 4 -40 15 -40 11 0 15 11 15 40 0 29 -4 40 -15
40 -11 0 -15 -11 -15 -40z"/>
<path d="M11273 16600 c0 -25 2 -35 4 -22 2 12 2 32 0 45 -2 12 -4 2 -4 -23z"/>
<path d="M11540 15480 c0 -22 5 -40 10 -40 6 0 10 18 10 40 0 22 -4 40 -10 40
-5 0 -10 -18 -10 -40z"/>
<path d="M11580 15480 c0 -22 5 -40 10 -40 6 0 10 18 10 40 0 22 -4 40 -10 40
-5 0 -10 -18 -10 -40z"/>
<path d="M11620 15463 c0 -13 5 -23 10 -23 13 0 13 11 0 30 -8 12 -10 11 -10
-7z"/>
<path d="M11672 15460 c0 -14 2 -19 5 -12 2 6 2 18 0 25 -3 6 -5 1 -5 -13z"/>
<path d="M11992 15330 c0 -19 2 -27 5 -17 2 9 2 25 0 35 -3 9 -5 1 -5 -18z"/>
<path d="M11940 15140 c0 -11 5 -20 10 -20 6 0 10 9 10 20 0 11 -4 20 -10 20
-5 0 -10 -9 -10 -20z"/>
<path d="M11980 15140 c0 -11 5 -20 10 -20 6 0 10 9 10 20 0 11 -4 20 -10 20
-5 0 -10 -9 -10 -20z"/>
<path d="M11937 15079 c-10 -37 -8 -42 9 -25 10 11 12 21 6 32 -8 14 -10 13
-15 -7z"/>
<path d="M12152 14425 c0 -16 2 -22 5 -12 2 9 2 23 0 30 -3 6 -5 -1 -5 -18z"/>
<path d="M12340 13943 c0 -13 5 -23 10 -23 13 0 13 11 0 30 -8 12 -10 11 -10
-7z"/>
<path d="M12392 13940 c0 -14 2 -19 5 -12 2 6 2 18 0 25 -3 6 -5 1 -5 -13z"/>
<path d="M12472 13940 c0 -14 2 -19 5 -12 2 6 2 18 0 25 -3 6 -5 1 -5 -13z"/>
<path d="M12633 13880 c0 -25 2 -35 4 -22 2 12 2 32 0 45 -2 12 -4 2 -4 -23z"/>
<path d="M12546 13797 c-5 -15 -6 -31 -2 -34 11 -11 18 5 14 34 l-4 28 -8 -28z"/>
<path d="M12500 13770 c0 -5 5 -10 10 -10 6 0 10 5 10 10 0 6 -4 10 -10 10 -5
0 -10 -4 -10 -10z"/>
<path d="M12720 13210 c0 -5 18 -10 40 -10 22 0 40 5 40 10 0 6 -18 10 -40 10
-22 0 -40 -4 -40 -10z"/>
<path d="M12822 13140 c0 -14 2 -19 5 -12 2 6 2 18 0 25 -3 6 -5 1 -5 -13z"/>
<path d="M13217 12438 c-4 -12 -7 -44 -7 -70 0 -36 4 -48 15 -48 12 0 15 13
15 58 0 65 -13 98 -23 60z"/>
<path d="M13273 12390 c0 -41 2 -58 4 -37 2 20 2 54 0 75 -2 20 -4 3 -4 -38z"/>
<path d="M13340 12415 c-10 -12 -10 -15 4 -15 9 0 16 7 16 15 0 8 -2 15 -4 15
-2 0 -9 -7 -16 -15z"/>
<path d="M13380 12290 c0 -5 5 -10 10 -10 6 0 10 5 10 10 0 6 -4 10 -10 10 -5
0 -10 -4 -10 -10z"/>
<path d="M13697 11798 c-10 -34 -9 -38 8 -38 16 0 20 27 6 48 -6 10 -10 8 -14
-10z"/>
<path d="M13752 11790 c0 -19 2 -27 5 -17 2 9 2 25 0 35 -3 9 -5 1 -5 -18z"/>
<path d="M13776 11657 c-9 -35 -7 -40 9 -23 17 16 19 32 6 40 -5 3 -11 -4 -15
-17z"/>
<path d="M13920 11290 c0 -5 18 -10 40 -10 22 0 40 5 40 10 0 6 -18 10 -40 10
-22 0 -40 -4 -40 -10z"/>
<path d="M14233 11190 c0 -41 2 -58 4 -37 2 20 2 54 0 75 -2 20 -4 3 -4 -38z"/>
<path d="M14480 10665 c0 -20 5 -25 25 -25 22 0 24 3 16 19 -17 31 -41 34 -41
6z"/>
<path d="M14708 10435 c-2 -19 0 -35 4 -35 4 0 8 16 8 35 0 19 -2 35 -4 35 -2
0 -6 -16 -8 -35z"/>
<path d="M14740 10423 c0 -13 5 -23 10 -23 13 0 13 11 0 30 -8 12 -10 11 -10
-7z"/>
<path d="M14792 10420 c0 -14 2 -19 5 -12 2 6 2 18 0 25 -3 6 -5 1 -5 -13z"/>
<path d="M14789 10315 c-3 -38 -4 -72 -2 -74 10 -12 14 14 11 75 l-3 69 -6
-70z"/>
<path d="M14900 10263 c0 -13 5 -23 10 -23 13 0 13 11 0 30 -8 12 -10 11 -10
-7z"/>
<path d="M14952 10260 c0 -14 2 -19 5 -12 2 6 2 18 0 25 -3 6 -5 1 -5 -13z"/>
<path d="M14980 9943 c0 -13 5 -23 10 -23 13 0 13 11 0 30 -8 12 -10 11 -10
-7z"/>
<path d="M15032 9940 c0 -14 2 -19 5 -12 2 6 2 18 0 25 -3 6 -5 1 -5 -13z"/>
<path d="M15180 9855 c-10 -12 -10 -15 4 -15 9 0 16 7 16 15 0 8 -2 15 -4 15
-2 0 -9 -7 -16 -15z"/>
<path d="M15348 9795 c-2 -19 0 -35 4 -35 4 0 8 16 8 35 0 19 -2 35 -4 35 -2
0 -6 -16 -8 -35z"/>
<path d="M15137 9798 c-10 -34 -9 -38 8 -38 16 0 20 27 6 48 -6 10 -10 8 -14
-10z"/>
<path d="M15192 9790 c0 -19 2 -27 5 -17 2 9 2 25 0 35 -3 9 -5 1 -5 -18z"/>
<path d="M15300 9776 c0 -9 5 -16 10 -16 6 0 10 4 10 9 0 6 -4 13 -10 16 -5 3
-10 -1 -10 -9z"/>
<path d="M15377 9718 c-4 -12 -7 -36 -7 -51 0 -25 2 -27 15 -13 16 16 20 53 6
74 -6 10 -10 8 -14 -10z"/>
<path d="M15432 9710 c0 -19 2 -27 5 -17 2 9 2 25 0 35 -3 9 -5 1 -5 -18z"/>
<path d="M15460 9730 c0 -5 5 -10 10 -10 6 0 10 5 10 10 0 6 -4 10 -10 10 -5
0 -10 -4 -10 -10z"/>
<path d="M15455 9690 c-3 -5 1 -10 10 -10 9 0 13 5 10 10 -3 6 -8 10 -10 10
-2 0 -7 -4 -10 -10z"/>
<path d="M15575 9660 c-10 -11 -15 -20 -11 -20 11 0 39 30 34 36 -3 2 -13 -5
-23 -16z"/>
<path d="M16152 9300 c0 -14 2 -19 5 -12 2 6 2 18 0 25 -3 6 -5 1 -5 -13z"/>
<path d="M16020 9223 c0 -13 5 -23 10 -23 13 0 13 11 0 30 -8 12 -10 11 -10
-7z"/>
<path d="M16072 9220 c0 -14 2 -19 5 -12 2 6 2 18 0 25 -3 6 -5 1 -5 -13z"/>
<path d="M15980 9210 c0 -5 5 -10 10 -10 6 0 10 5 10 10 0 6 -4 10 -10 10 -5
0 -10 -4 -10 -10z"/>
<path d="M16391 9014 c0 -11 3 -14 6 -6 3 7 2 16 -1 19 -3 4 -6 -2 -5 -13z"/>
<path d="M16385 8970 c-3 -5 -1 -10 4 -10 6 0 11 5 11 10 0 6 -2 10 -4 10 -3
0 -8 -4 -11 -10z"/>
<path d="M16256 8937 c-9 -33 -8 -37 9 -37 9 0 15 9 15 24 0 33 -16 42 -24 13z"/>
<path d="M16308 8930 c-3 -16 -1 -30 4 -30 4 0 8 14 8 30 0 17 -2 30 -4 30 -2
0 -6 -13 -8 -30z"/>
<path d="M16789 8643 c-1 -21 -3 -62 -4 -90 -1 -29 2 -53 6 -53 5 0 9 41 9 90
0 88 -9 127 -11 53z"/>
<path d="M16480 8650 c0 -5 18 -10 40 -10 22 0 40 5 40 10 0 6 -18 10 -40 10
-22 0 -40 -4 -40 -10z"/>
<path d="M16953 8600 c0 -25 2 -35 4 -22 2 12 2 32 0 45 -2 12 -4 2 -4 -23z"/>
<path d="M16820 8583 c0 -13 5 -23 10 -23 13 0 13 11 0 30 -8 12 -10 11 -10
-7z"/>
<path d="M16952 8500 c0 -14 2 -19 5 -12 2 6 2 18 0 25 -3 6 -5 1 -5 -13z"/>
<path d="M16792 8430 c0 -19 2 -27 5 -17 2 9 2 25 0 35 -3 9 -5 1 -5 -18z"/>
<path d="M16953 8280 c0 -25 2 -35 4 -22 2 12 2 32 0 45 -2 12 -4 2 -4 -23z"/>
<path d="M16980 8120 c0 -22 5 -40 10 -40 6 0 10 18 10 40 0 22 -4 40 -10 40
-5 0 -10 -18 -10 -40z"/>
<path d="M17100 8095 c-10 -12 -10 -15 4 -15 9 0 16 7 16 15 0 8 -2 15 -4 15
-2 0 -9 -7 -16 -15z"/>
<path d="M17055 8060 c-4 -6 -3 -16 3 -22 6 -6 12 -6 17 2 4 6 3 16 -3 22 -6
6 -12 6 -17 -2z"/>
<path d="M17111 8054 c0 -11 3 -14 6 -6 3 7 2 16 -1 19 -3 4 -6 -2 -5 -13z"/>
<path d="M17136 7977 c-10 -39 -7 -57 12 -57 15 0 17 6 14 35 -5 42 -17 53
-26 22z"/>
<path d="M17188 7966 c-7 -39 -4 -55 8 -44 3 3 4 23 2 44 l-3 39 -7 -39z"/>
<path d="M17223 7960 c0 -25 2 -35 4 -22 2 12 2 32 0 45 -2 12 -4 2 -4 -23z"/>
<path d="M17512 7780 c0 -14 2 -19 5 -12 2 6 2 18 0 25 -3 6 -5 1 -5 -13z"/>
<path d="M17420 7775 c-10 -12 -10 -15 4 -15 9 0 16 7 16 15 0 8 -2 15 -4 15
-2 0 -9 -7 -16 -15z"/>
<path d="M17377 7638 c-10 -34 -9 -38 8 -38 16 0 20 27 6 48 -6 10 -10 8 -14
-10z"/>
<path d="M17563 7395 c-30 -31 -29 -35 7 -35 27 0 30 3 30 30 0 36 -8 37 -37
5z"/>
<path d="M17633 7385 c-19 -21 -16 -25 17 -25 23 0 30 4 30 20 0 23 -29 26
-47 5z"/>
<path d="M17764 7204 c3 -9 6 -22 6 -30 0 -8 7 -14 15 -14 8 0 15 9 15 20 0
12 7 20 16 20 11 0 15 -6 11 -20 -3 -11 -1 -20 4 -20 5 0 9 14 9 30 0 28 -2
30 -41 30 -33 0 -40 -3 -35 -16z"/>
<path d="M17857 6838 c-10 -34 -9 -38 8 -38 16 0 20 27 6 48 -6 10 -10 8 -14
-10z"/>
<path d="M17912 6830 c0 -19 2 -27 5 -17 2 9 2 25 0 35 -3 9 -5 1 -5 -18z"/>
<path d="M18100 6580 c0 -14 -3 -42 -6 -62 -6 -34 -4 -38 15 -38 12 0 20 4 17
9 -4 5 -7 27 -8 50 -1 46 -18 82 -18 41z"/>
<path d="M18149 6545 c-4 -33 -5 -62 -3 -64 10 -12 15 12 12 65 l-3 59 -6 -60z"/>
<path d="M18420 6263 c0 -13 5 -23 10 -23 13 0 13 11 0 30 -8 12 -10 11 -10
-7z"/>
<path d="M18472 6260 c0 -14 2 -19 5 -12 2 6 2 18 0 25 -3 6 -5 1 -5 -13z"/>
<path d="M18380 6200 c0 -22 5 -40 10 -40 6 0 10 18 10 40 0 22 -4 40 -10 40
-5 0 -10 -18 -10 -40z"/>
<path d="M18460 6120 l0 -40 50 0 c28 0 50 5 50 10 0 6 -18 10 -40 10 -38 0
-40 2 -40 30 0 17 -4 30 -10 30 -5 0 -10 -18 -10 -40z"/>
<path d="M18661 6003 c0 -50 3 -83 9 -83 11 0 12 43 0 115 -7 47 -7 45 -9 -32z"/>
<path d="M18700 5960 c0 -22 5 -40 10 -40 6 0 10 18 10 40 0 22 -4 40 -10 40
-5 0 -10 -18 -10 -40z"/>
<path d="M18740 5943 c0 -13 5 -23 10 -23 13 0 13 11 0 30 -8 12 -10 11 -10
-7z"/>
<path d="M18792 5940 c0 -14 2 -19 5 -12 2 6 2 18 0 25 -3 6 -5 1 -5 -13z"/>
<path d="M18738 5883 c-6 -22 0 -43 13 -43 11 0 12 31 0 48 -6 11 -9 10 -13
-5z"/>
<path d="M18792 5870 c0 -19 2 -27 5 -17 2 9 2 25 0 35 -3 9 -5 1 -5 -18z"/>
<path d="M18900 5783 c0 -13 5 -23 10 -23 13 0 13 11 0 30 -8 12 -10 11 -10
-7z"/>
<path d="M18820 5770 c0 -5 14 -10 30 -10 17 0 30 5 30 10 0 6 -13 10 -30 10
-16 0 -30 -4 -30 -10z"/>
<path d="M18650 5729 c0 -27 2 -29 15 -15 8 8 15 22 15 30 0 9 -7 16 -15 16
-10 0 -15 -10 -15 -31z"/>
<path d="M18660 5623 c0 -13 5 -23 10 -23 13 0 13 11 0 30 -8 12 -10 11 -10
-7z"/>
<path d="M18712 5620 c0 -14 2 -19 5 -12 2 6 2 18 0 25 -3 6 -5 1 -5 -13z"/>
<path d="M18897 5398 c-10 -34 -9 -38 8 -38 16 0 20 27 6 48 -6 10 -10 8 -14
-10z"/>
<path d="M18952 5390 c0 -19 2 -27 5 -17 2 9 2 25 0 35 -3 9 -5 1 -5 -18z"/>
<path d="M19220 5080 c0 -22 5 -40 10 -40 6 0 10 18 10 40 0 22 -4 40 -10 40
-5 0 -10 -18 -10 -40z"/>
<path d="M19273 5080 c0 -25 2 -35 4 -22 2 12 2 32 0 45 -2 12 -4 2 -4 -23z"/>
<path d="M19297 4998 c-10 -34 -9 -38 8 -38 16 0 20 27 6 48 -6 10 -10 8 -14
-10z"/>
<path d="M19290 4780 c0 -11 7 -20 15 -20 8 0 15 9 15 20 0 11 -7 20 -15 20
-8 0 -15 -9 -15 -20z"/>
<path d="M19347 4780 c-3 -11 -1 -20 4 -20 5 0 9 9 9 20 0 11 -2 20 -4 20 -2
0 -6 -9 -9 -20z"/>
<path d="M19672 4740 c0 -14 2 -19 5 -12 2 6 2 18 0 25 -3 6 -5 1 -5 -13z"/>
<path d="M19573 4725 c-7 -8 -13 -30 -13 -50 0 -28 4 -35 20 -35 17 0 20 7 20
50 0 52 -6 59 -27 35z"/>
<path d="M19747 4691 c-4 -24 -5 -46 -2 -49 11 -11 16 8 13 49 l-3 44 -8 -44z"/>
<path d="M19617 4678 c-10 -34 -9 -38 8 -38 16 0 20 27 6 48 -6 10 -10 8 -14
-10z"/>
<path d="M19672 4670 c0 -19 2 -27 5 -17 2 9 2 25 0 35 -3 9 -5 1 -5 -18z"/>
<path d="M19700 4666 c0 -14 5 -26 10 -26 6 0 10 9 10 19 0 11 -4 23 -10 26
-6 4 -10 -5 -10 -19z"/>
<path d="M19777 4598 c-10 -34 -9 -38 8 -38 16 0 20 27 6 48 -6 10 -10 8 -14
-10z"/>
<path d="M19920 4090 c0 -5 18 -10 40 -10 22 0 40 5 40 10 0 6 -18 10 -40 10
-22 0 -40 -4 -40 -10z"/>
<path d="M20017 4038 c-10 -34 -9 -38 8 -38 16 0 20 27 6 48 -6 10 -10 8 -14
-10z"/>
<path d="M20072 4030 c0 -19 2 -27 5 -17 2 9 2 25 0 35 -3 9 -5 1 -5 -18z"/>
<path d="M20580 3703 c0 -13 5 -23 10 -23 13 0 13 11 0 30 -8 12 -10 11 -10
-7z"/>
<path d="M20626 3689 c-10 -50 -7 -169 4 -169 6 0 10 40 10 100 0 55 -2 100
-4 100 -2 0 -6 -14 -10 -31z"/>
<path d="M20490 3460 c0 -47 3 -60 15 -60 12 0 15 13 15 60 0 47 -3 60 -15 60
-12 0 -15 -13 -15 -60z"/>
<path d="M20552 3494 c-1 -17 -5 -46 -8 -63 -4 -20 -3 -31 5 -31 6 0 11 10 11
23 0 18 2 19 10 7 6 -10 10 -11 10 -2 0 6 9 12 20 12 11 0 20 5 20 10 0 6 -13
10 -29 10 -26 0 -30 4 -34 33 l-4 32 -1 -31z"/>
<path d="M20663 3480 c0 -25 2 -35 4 -22 2 12 2 32 0 45 -2 12 -4 2 -4 -23z"/>
<path d="M20712 3490 c0 -19 2 -27 5 -17 2 9 2 25 0 35 -3 9 -5 1 -5 -18z"/>
<path d="M20868 3075 c-2 -19 0 -35 4 -35 4 0 8 16 8 35 0 19 -2 35 -4 35 -2
0 -6 -16 -8 -35z"/>
<path d="M20900 3063 c0 -13 5 -23 10 -23 13 0 13 11 0 30 -8 12 -10 11 -10
-7z"/>
<path d="M20952 3060 c0 -14 2 -19 5 -12 2 6 2 18 0 25 -3 6 -5 1 -5 -13z"/>
<path d="M20820 3056 c0 -9 5 -16 10 -16 6 0 10 4 10 9 0 6 -4 13 -10 16 -5 3
-10 -1 -10 -9z"/>
<path d="M20817 2998 c-10 -34 -9 -38 8 -38 16 0 20 27 6 48 -6 10 -10 8 -14
-10z"/>
<path d="M20872 2990 c0 -19 2 -27 5 -17 2 9 2 25 0 35 -3 9 -5 1 -5 -18z"/>
<path d="M20897 2918 c-10 -34 -9 -38 8 -38 16 0 20 27 6 48 -6 10 -10 8 -14
-10z"/>
<path d="M20952 2910 c0 -19 2 -27 5 -17 2 9 2 25 0 35 -3 9 -5 1 -5 -18z"/>
<path d="M21188 2793 c-4 -25 -2 -73 5 -73 4 0 7 18 7 40 0 35 -7 55 -12 33z"/>
<path d="M21135 2781 c-7 -12 12 -24 25 -16 11 7 4 25 -10 25 -5 0 -11 -4 -15
-9z"/>
<path d="M21673 2680 c0 -25 2 -35 4 -22 2 12 2 32 0 45 -2 12 -4 2 -4 -23z"/>
<path d="M21350 2683 c-1 -16 -3 -49 -5 -75 -3 -27 0 -48 5 -48 6 0 10 33 10
75 0 41 -2 75 -5 75 -3 0 -5 -12 -5 -27z"/>
<path d="M21300 2656 c0 -9 5 -16 10 -16 6 0 10 4 10 9 0 6 -4 13 -10 16 -5 3
-10 -1 -10 -9z"/>
<path d="M21300 2586 c0 -14 5 -26 10 -26 6 0 10 9 10 19 0 11 -4 23 -10 26
-6 4 -10 -5 -10 -19z"/>
<path d="M21380 2583 c0 -13 5 -23 10 -23 13 0 13 11 0 30 -8 12 -10 11 -10
-7z"/>
<path d="M21432 2580 c0 -14 2 -19 5 -12 2 6 2 18 0 25 -3 6 -5 1 -5 -13z"/>
<path d="M21780 2263 c0 -13 5 -23 10 -23 13 0 13 11 0 30 -8 12 -10 11 -10
-7z"/>
<path d="M21832 2260 c0 -14 2 -19 5 -12 2 6 2 18 0 25 -3 6 -5 1 -5 -13z"/>
<path d="M22100 1943 c0 -13 5 -23 10 -23 13 0 13 11 0 30 -8 12 -10 11 -10
-7z"/>
<path d="M22152 1940 c0 -14 2 -19 5 -12 2 6 2 18 0 25 -3 6 -5 1 -5 -13z"/>
<path d="M22460 1615 c-10 -12 -10 -15 4 -15 9 0 16 7 16 15 0 8 -2 15 -4 15
-2 0 -9 -7 -16 -15z"/>
<path d="M22497 1558 c-10 -34 -9 -38 8 -38 16 0 20 27 6 48 -6 10 -10 8 -14
-10z"/>
<path d="M22552 1550 c0 -19 2 -27 5 -17 2 9 2 25 0 35 -3 9 -5 1 -5 -18z"/>
<path d="M22704 1460 c-11 -11 -6 -100 7 -100 5 0 9 25 9 55 0 58 -1 60 -16
45z"/>
<path d="M22660 1400 c0 -22 5 -40 10 -40 6 0 10 18 10 40 0 22 -4 40 -10 40
-5 0 -10 -18 -10 -40z"/>
<path d="M22740 1383 c0 -13 5 -23 10 -23 13 0 13 11 0 30 -8 12 -10 11 -10
-7z"/>
<path d="M22792 1380 c0 -14 2 -19 5 -12 2 6 2 18 0 25 -3 6 -5 1 -5 -13z"/>
<path d="M23010 1150 l-25 -25 23 -3 c30 -4 34 0 30 30 l-3 23 -25 -25z"/>
<path d="M23060 1143 c0 -13 5 -23 10 -23 13 0 13 11 0 30 -8 12 -10 11 -10
-7z"/>
<path d="M23112 1140 c0 -14 2 -19 5 -12 2 6 2 18 0 25 -3 6 -5 1 -5 -13z"/>
<path d="M23188 1075 c-2 -19 0 -35 4 -35 4 0 8 16 8 35 0 19 -2 35 -4 35 -2
0 -6 -16 -8 -35z"/>
<path d="M23140 1056 c0 -9 5 -16 10 -16 6 0 10 4 10 9 0 6 -4 13 -10 16 -5 3
-10 -1 -10 -9z"/>
<path d="M23217 998 c-10 -34 -9 -38 8 -38 16 0 20 27 6 48 -6 10 -10 8 -14
-10z"/>
<path d="M23272 990 c0 -19 2 -27 5 -17 2 9 2 25 0 35 -3 9 -5 1 -5 -18z"/>
<path d="M23580 735 c-10 -12 -10 -15 4 -15 9 0 16 7 16 15 0 8 -2 15 -4 15
-2 0 -9 -7 -16 -15z"/>
<path d="M23753 680 c0 -25 2 -35 4 -22 2 12 2 32 0 45 -2 12 -4 2 -4 -23z"/>
<path d="M23617 678 c-10 -34 -9 -38 8 -38 16 0 20 27 6 48 -6 10 -10 8 -14
-10z"/>
<path d="M23672 670 c0 -19 2 -27 5 -17 2 9 2 25 0 35 -3 9 -5 1 -5 -18z"/>
<path d="M23907 611 c-4 -24 -5 -46 -2 -49 11 -11 16 8 13 49 l-3 44 -8 -44z"/>
<path d="M23989 620 c-7 -35 -4 -48 7 -38 3 4 4 21 2 40 l-3 33 -6 -35z"/>
<path d="M23820 600 c0 -22 5 -40 10 -40 6 0 10 18 10 40 0 22 -4 40 -10 40
-5 0 -10 -18 -10 -40z"/>
<path d="M23860 586 c0 -14 5 -26 10 -26 6 0 10 9 10 19 0 11 -4 23 -10 26 -6
4 -10 -5 -10 -19z"/>
<path d="M23940 586 c0 -14 5 -26 10 -26 6 0 10 9 10 19 0 11 -4 23 -10 26 -6
4 -10 -5 -10 -19z"/>
<path d="M23993 220 c0 -36 2 -50 4 -32 2 17 2 47 0 65 -2 17 -4 3 -4 -33z"/>
<path d="M24021 183 c-1 -13 4 -23 9 -23 6 0 10 -18 10 -40 0 -30 4 -40 16
-40 12 0 8 -10 -16 -40 l-32 -40 36 0 36 0 -1 103 c-1 56 -4 92 -6 80 -2 -13
-10 -23 -17 -23 -7 0 -18 10 -24 23 l-11 22 0 -22z"/>
<path d="M24220 95 c-10 -12 -10 -15 4 -15 9 0 16 7 16 15 0 8 -2 15 -4 15 -2
0 -9 -7 -16 -15z"/>
</g>
</svg>
