<svg width="39" height="42" viewBox="0 0 39 42" fill="none" xmlns="http://www.w3.org/2000/svg">
<path d="M17.55 32.8776H21.45V28.7712H17.55V32.8776ZM19.5 0.0263672C8.736 0.0263672 0 9.22472 0 20.5584C0 31.8921 8.736 41.0904 19.5 41.0904C30.264 41.0904 39 31.8921 39 20.5584C39 9.22472 30.264 0.0263672 19.5 0.0263672ZM19.5 36.984C10.9005 36.984 3.9 29.613 3.9 20.5584C3.9 11.5038 10.9005 4.13277 19.5 4.13277C28.0995 4.13277 35.1 11.5038 35.1 20.5584C35.1 29.613 28.0995 36.984 19.5 36.984ZM19.5 8.23918C15.1905 8.23918 11.7 11.9144 11.7 16.452H15.6C15.6 14.1935 17.355 12.3456 19.5 12.3456C21.645 12.3456 23.4 14.1935 23.4 16.452C23.4 20.5584 17.55 20.0451 17.55 26.718H21.45C21.45 22.0983 27.3 21.585 27.3 16.452C27.3 11.9144 23.8095 8.23918 19.5 8.23918Z" fill="black"/>
</svg>
